<?xml version="1.0" encoding="UTF-8" standalone="no"?>
<!-- Created with Inkscape (http://www.inkscape.org/) -->

<svg
   xmlns:dc="http://purl.org/dc/elements/1.1/"
   xmlns:cc="http://creativecommons.org/ns#"
   xmlns:rdf="http://www.w3.org/1999/02/22-rdf-syntax-ns#"
   xmlns:svg="http://www.w3.org/2000/svg"
   xmlns="http://www.w3.org/2000/svg"
   xmlns:sodipodi="http://sodipodi.sourceforge.net/DTD/sodipodi-0.dtd"
   xmlns:inkscape="http://www.inkscape.org/namespaces/inkscape"
   version="1.1"
   width="91"
   height="51"
   id="svg5932"
   inkscape:version="0.47 r22583"
   sodipodi:docname="SpatialEnv2_91x51.svg">
  <metadata
     id="metadata8">
    <rdf:RDF>
      <cc:Work
         rdf:about="">
        <dc:format>image/svg+xml</dc:format>
        <dc:type
           rdf:resource="http://purl.org/dc/dcmitype/StillImage" />
        <dc:title />
      </cc:Work>
    </rdf:RDF>
  </metadata>
  <sodipodi:namedview
     pagecolor="#ffffff"
     bordercolor="#666666"
     borderopacity="1"
     objecttolerance="10"
     gridtolerance="10"
     guidetolerance="10"
     inkscape:pageopacity="0"
     inkscape:pageshadow="2"
     inkscape:window-width="1920"
     inkscape:window-height="1003"
     id="namedview6"
     showgrid="false"
     inkscape:zoom="5.6568543"
     inkscape:cx="30.590761"
     inkscape:cy="1.4017591"
     inkscape:window-x="0"
     inkscape:window-y="25"
     inkscape:window-maximized="1"
     inkscape:current-layer="svg5932" />
  <defs
     id="defs5934">
    <inkscape:perspective
       sodipodi:type="inkscape:persp3d"
       inkscape:vp_x="0 : 25.5 : 1"
       inkscape:vp_y="0 : 1000 : 0"
       inkscape:vp_z="91 : 25.5 : 1"
       inkscape:persp3d-origin="45.5 : 17 : 1"
       id="perspective66" />
  </defs>
  <g
     transform="translate(0,-1001.3622)"
     id="layer1"
     style="stroke:#f2f2f2">
    <rect
       width="90.89286"
       height="50.625"
       x="0.089285716"
       y="0.19642843"
       transform="translate(0,1001.3622)"
       id="rect5942"
       style="fill:none;stroke:#f2f2f2;stroke-width:1;stroke-linecap:square;stroke-linejoin:miter;stroke-miterlimit:4;stroke-opacity:1;stroke-dasharray:none" />
  </g>
  <rect
     style="fill:#e6e6e6;fill-rule:evenodd;stroke:#000000;stroke-width:1px;stroke-linecap:butt;stroke-linejoin:miter;stroke-opacity:1"
     id="rect2985"
     width="16.968401"
     height="16.968401"
     x="3.0339355"
     y="0.32365209" />
  <rect
     style="fill:#f2f2f2;fill-rule:evenodd;stroke:#000000;stroke-width:1px;stroke-linecap:butt;stroke-linejoin:miter;stroke-opacity:1"
     id="rect2985-1"
     width="16.968401"
     height="16.968401"
     x="3.0478191"
     y="16.954521" />
  <rect
     style="fill:#b3b3b3;fill-rule:evenodd;stroke:#000000;stroke-width:1px;stroke-linecap:butt;stroke-linejoin:miter;stroke-opacity:1"
     id="rect2985-1-4"
     width="16.968401"
     height="16.968401"
     x="3.0402937"
     y="33.835339" />
  <rect
     style="fill:#b3b3b3;fill-rule:evenodd;stroke:#000000;stroke-width:1px;stroke-linecap:butt;stroke-linejoin:miter;stroke-opacity:1"
     id="rect2985-7"
     width="16.968401"
     height="16.968401"
     x="19.975763"
     y="0.29922128" />
  <rect
     style="fill:#cccccc;fill-rule:evenodd;stroke:#000000;stroke-width:1px;stroke-linecap:butt;stroke-linejoin:miter;stroke-opacity:1"
     id="rect2985-1-2"
     width="16.968401"
     height="16.968401"
     x="19.989649"
     y="16.93009" />
  <rect
     style="fill:#ececec;fill-rule:evenodd;stroke:#000000;stroke-width:1px;stroke-linecap:butt;stroke-linejoin:miter;stroke-opacity:1"
     id="rect2985-1-4-2"
     width="16.968401"
     height="16.968401"
     x="19.982122"
     y="33.810905" />
  <rect
     style="fill:#ffffff;fill-rule:evenodd;stroke:#000000;stroke-width:1px;stroke-linecap:butt;stroke-linejoin:miter;stroke-opacity:1"
     id="rect2985-6"
     width="16.968401"
     height="16.968401"
     x="36.950817"
     y="0.28833947" />
  <rect
     style="fill:#e6e6e6;fill-rule:evenodd;stroke:#000000;stroke-width:1px;stroke-linecap:butt;stroke-linejoin:miter;stroke-opacity:1"
     id="rect2985-1-1"
     width="16.968401"
     height="16.968401"
     x="36.964703"
     y="16.919209" />
  <rect
     style="fill:#ffffff;fill-rule:evenodd;stroke:#000000;stroke-width:1px;stroke-linecap:butt;stroke-linejoin:miter;stroke-opacity:1"
     id="rect2985-1-4-0"
     width="16.968401"
     height="16.968401"
     x="36.957176"
     y="33.800026" />
  <rect
     style="fill:#f2f2f2;fill-rule:evenodd;stroke:#000000;stroke-width:1px;stroke-linecap:butt;stroke-linejoin:miter;stroke-opacity:1"
     id="rect2985-1-4-9"
     width="16.968401"
     height="16.968401"
     x="53.915909"
     y="33.800026" />
  <path
     style="fill:#ffffff;stroke:none"
     d="m 88.372867,25.560217 c -7e-6,-4.275279 0.01162,-6.038107 0.02584,-3.917397 0.01422,2.120711 0.01422,5.618667 1.3e-5,7.773235 -0.01421,2.154568 -0.02584,0.419441 -0.02585,-3.855838 z"
     id="path3223"
     inkscape:connector-curvature="0" />
  <path
     style="fill:#ffffff;stroke:none"
     d="m 88.422439,32.637047 c 0,-9.689573 0.02772,-18.007882 0.06159,-18.485129 0.04227,-0.595449 0.09857,-0.867723 0.179449,-0.867723 0.06482,0 0.14241,-0.06399 0.172421,-0.142194 0.03001,-0.07821 0.163887,-0.142193 0.297504,-0.142193 0.148645,0 0.262836,-0.06439 0.294201,-0.165892 0.103771,-0.335817 0.204153,-0.453846 0.520177,-0.611618 0.177743,-0.08874 0.355162,-0.163388 0.394265,-0.165892 0.0391,-0.0025 0.0711,8.591032 0.0711,19.096748 l 0,19.101301 -0.995353,0 -0.995353,0 0,-17.617408 z"
     id="path3225"
     inkscape:connector-curvature="0" />
  <path
     style="fill:#ffffff;stroke:none"
     d="m 79.528147,35.642014 c -0.121275,-0.148752 -0.306654,-0.270459 -0.411953,-0.270459 -0.1053,0 -0.304681,-0.05769 -0.443069,-0.128194 -0.761247,-0.387843 -0.939018,-0.492038 -1.183145,-0.693465 l -0.267961,-0.221092 2.112512,0 2.112513,0 -0.422619,0.434421 c -0.23244,0.238931 -0.614579,0.595256 -0.849198,0.791834 l -0.42658,0.357414 -0.2205,-0.270459 0,0 z"
     id="path3231"
     inkscape:connector-curvature="0" />
  <path
     style="fill:#ffffff;stroke:none"
     d="m 78.20822,34.258014 c 0.612616,-0.01651 1.615079,-0.01651 2.227695,0 0.612616,0.01651 0.111385,0.03002 -1.113848,0.03002 -1.225232,0 -1.726463,-0.01351 -1.113847,-0.03002 z"
     id="path3233"
     inkscape:connector-curvature="0" />
  <path
     style="fill:#ffffff;stroke:none"
     d="m 76.975878,34.171228 c -0.06517,-0.0263 -0.118495,-0.124293 -0.118495,-0.217767 0,-0.134693 -0.103251,-0.181606 -0.497676,-0.22612 -0.273722,-0.03089 -0.753625,-0.117915 -1.06645,-0.193385 -0.528678,-0.127545 -0.309823,-0.137778 3.104554,-0.145162 2.302891,-0.005 3.673327,0.02619 3.673327,0.08355 0,0.05032 -0.132393,0.242284 -0.294207,0.42658 l -0.294206,0.335083 -2.194177,-0.0075 c -1.206796,-0.0041 -2.247498,-0.029 -2.31267,-0.0553 z"
     id="path3235"
     inkscape:connector-curvature="0" />
  <path
     style="fill:#ffffff;stroke:none"
     d="m 54.40381,50.307696 c 0,-0.03153 0.904507,-0.03555 7.998373,-0.03555 7.093866,0 7.998374,0.004 7.998374,0.03555 0,0.03153 -0.904508,0.03555 -7.998374,0.03555 -7.093866,0 -7.998373,-0.004 -7.998373,-0.03555 z"
     id="path3250"
     inkscape:connector-curvature="0" />
  <path
     style="fill:#ffffff;stroke:none"
     d=""
     id="path3252"
     inkscape:connector-curvature="0" />
  <path
     style="fill:#ffffff;stroke:none"
     d="m 58.349674,50.321321 -3.862918,-0.01362 4.02881,-0.01185 c 2.215846,-0.0065 5.777788,-0.0064 7.915428,2.09e-4 l 3.886617,0.01206 -3.756273,0.0058 c -2.065951,0.0032 -3.88958,0.0092 -4.05251,0.01342 -0.16293,0.0042 -2.034549,0.0015 -4.159154,-0.006 z"
     id="path3254"
     inkscape:connector-curvature="0" />
  <path
     style="fill:#ffffff;stroke:none"
     d="m 70.412548,48.438047 c 0,-1.05166 4.46e-4,-1.481885 9.92e-4,-0.956055 5.46e-4,0.52583 5.46e-4,1.386279 0,1.912109 -5.46e-4,0.525831 -9.92e-4,0.09561 -9.92e-4,-0.956054 z"
     id="path3256"
     inkscape:connector-curvature="0" />
  <path
     style="fill:#ffffff;stroke:none"
     d="m 67.838345,50.343804 c 1.098445,-0.0041 2.109786,-0.01084 2.287109,-0.01517 0.212294,-0.0052 0.286798,-0.0116 0.274751,-0.02364 -0.01971,-0.01971 -0.503745,-0.02685 -2.085298,-0.03074 l -1.132812,-0.0028 1.602539,-6.89e-4 1.602539,-6.89e-4 0,-1.871094 0,-1.871093 0.01172,0 0.01172,0 0,1.910156 0,1.910156 -1.69043,-6.78e-4 c -1.569007,-6.3e-4 -1.632349,-8.97e-4 -0.881836,-0.0037 z"
     id="path3258"
     inkscape:connector-curvature="0" />
  <path
     style="fill:#ffffff;stroke:none"
     d="m 71.359829,48.437396 c 0,-1.050944 8.19e-4,-1.909989 0.0018,-1.908989 0.0018,0.0018 0.01378,3.109785 0.0138,3.576626 l 9e-6,0.239253 1.350586,9.87e-4 1.350586,9.88e-4 -1.358398,9.71e-4 -1.358399,9.71e-4 0,-1.910807 z"
     id="path3260"
     inkscape:connector-curvature="0" />
  <path
     style="fill:#ffffff;stroke:none"
     d="m 71.422329,48.398984 c 0,-1.868489 1.1e-5,-1.871093 0.0078,-1.871093 0.0078,0 0.0078,0.0026 0.0078,1.871093 0,1.86849 -1.1e-5,1.871094 -0.0078,1.871094 -0.0078,0 -0.0078,-0.0026 -0.0078,-1.871094 z"
     id="path3262"
     inkscape:connector-curvature="0" />
  <path
     style="fill:#ffffff;stroke:none"
     d="m 71.441861,48.397031 c 0,-1.658854 6.59e-4,-1.86914 0.0059,-1.86914 0.0052,0 0.0059,0.209635 0.0059,1.863281 l 0,1.863281 1.310547,0 c 1.162327,0 1.310547,6.63e-4 1.310547,0.0059 0,0.0052 -0.148871,0.0059 -1.316406,0.0059 l -1.316406,0 0,-1.869141 z"
     id="path3264"
     inkscape:connector-curvature="0" />
  <path
     style="fill:#ffffff;stroke:none"
     d="m 71.442433,49.271055 c 3.15e-4,-0.547315 0.0017,-1.385352 0.0031,-1.862305 l 0.0025,-0.867188 0.0014,0.552735 c 7.49e-4,0.304004 0.0025,1.139844 0.0039,1.857422 l 0.0025,1.304687 7.9e-4,-1.864258 7.91e-4,-1.864257 1.308593,0 1.308594,0 0,1.863281 0,1.863281 -0.545898,9.56e-4 -0.545899,9.56e-4 0.541016,0.002 0.541015,0.002 -0.739906,0.0029 c -0.406949,0.0016 -0.997134,0.0029 -1.311524,0.0029 l -0.571616,0 5.72e-4,-0.995117 z"
     id="path3266"
     inkscape:connector-curvature="0" />
  <path
     style="fill:#ffffff;stroke:none"
     d="m 54.428414,47.270674 0.008,-2.991895 0.171875,-0.02621 c 0.214312,-0.03268 0.934044,-0.174234 1.53125,-0.301169 0.249218,-0.05297 0.713092,-0.124109 1.030829,-0.158085 0.356806,-0.03815 0.751128,-0.103478 1.03125,-0.17084 0.392861,-0.09447 0.791282,-0.168002 2.234796,-0.412426 0.191856,-0.03249 0.392344,-0.04249 0.630774,-0.03147 0.461666,0.02133 0.708289,-0.0132 1.172259,-0.164148 0.609259,-0.198213 0.828602,-0.22962 1.431342,-0.204945 0.589721,0.02414 1.065796,-0.01468 1.392238,-0.113538 0.16034,-0.04856 0.352009,-0.07192 0.732762,-0.08932 0.442981,-0.02024 0.59047,-0.04134 1.046875,-0.149794 0.292187,-0.06943 0.685937,-0.156876 0.875,-0.194328 1.113151,-0.220512 2.303631,-0.502311 2.595982,-0.614497 0.03856,-0.0148 0.04464,0.571188 0.04464,4.298713 l 0,4.315843 -7.968907,0 -7.968907,0 0.008,-2.991895 z"
     id="path3268"
     inkscape:connector-curvature="0" />
  <path
     style="fill:#ffffff;stroke:none"
     d="m 38.985376,51.223396 c -0.009,-0.07453 -0.0062,-0.08511 0.05464,-0.207053 0.06976,-0.13992 0.07318,-0.143473 0.287954,-0.299371 0.193958,-0.140788 0.268034,-0.202867 0.394351,-0.330484 l 0.113101,-0.114264 5.63104,0 5.631039,0 0,0.03516 0,0.03516 -5.619141,1.56e-4 -5.61914,1.57e-4 -0.210938,0.1727 c -0.31485,0.257777 -0.427047,0.357561 -0.527129,0.468814 -0.0762,0.08471 -0.100069,0.123667 -0.08196,0.133799 0.05581,0.03123 3.878345,0.06002 9.704796,0.07308 l 2.353516,0.0053 0,0.03394 0,0.03394 -6.053599,0 -6.0536,0 -0.0049,-0.04102 0,0 z"
     id="path3270"
     inkscape:connector-curvature="0" />
  <path
     style="fill:#ffffff;stroke:none"
     d="m 70.390599,22.384634 c 0,-2.728516 0.0018,-3.844726 0.004,-2.480469 0.0022,1.364258 0.0022,3.59668 0,4.960938 -0.0022,1.364258 -0.004,0.248047 -0.004,-2.480469 z"
     id="path3284"
     inkscape:connector-curvature="0" />
  <path
     style="fill:#b3b3b3;stroke:none"
     d="m 54.690042,47.252649 0.07043,-2.9375 2.375,-0.430371 c 1.30625,-0.236704 3.89375,-0.607512 5.75,-0.824018 1.85625,-0.216506 4.196725,-0.569864 5.201056,-0.78524 1.00433,-0.215376 1.868811,-0.348838 1.921067,-0.296581 0.05226,0.05226 0.175265,1.921156 0.273352,4.153111 l 0.17834,4.058099 -7.919841,0 -7.919841,0 0.07043,-2.9375 z"
     id="path3294"
     inkscape:connector-curvature="0" />
  <path
     style="fill:#b3b3b3;stroke:none"
     d="m 41.135476,49.423425 c 4.019309,-2.728489 7.355129,-4.272956 9.955382,-4.609289 0.64329,-0.08321 1.422743,-0.203537 1.732118,-0.267399 0.557499,-0.115082 0.5625,-0.09051 0.5625,2.763649 l 0,2.879763 -6.6875,-0.0015 -6.6875,-0.0015 1.125,-0.763701 z"
     id="path3296"
     inkscape:connector-curvature="0" />
  <path
     style="fill:#999999;stroke:#999999;stroke-width:0.1875;stroke-miterlimit:4;stroke-opacity:1;stroke-dasharray:none"
     d="m 45.523856,51.150833 c -3.09375,-0.02265 -5.807813,-0.04647 -6.03125,-0.05293 l -0.40625,-0.01176 0.358235,-0.330702 0.358236,-0.330701 3.198918,-0.04148 c 1.759405,-0.02281 4.045074,-0.04153 5.079264,-0.0416 1.034191,-6.3e-5 2.660815,-0.01865 3.614721,-0.0413 l 1.734375,-0.04118 0,-2.989949 0,-2.989949 0.178777,0 c 0.09833,0 0.309265,0.01788 0.46875,0.03974 l 0.289973,0.03975 0,2.956567 c 0,1.634099 0.02459,2.971765 0.05498,2.990546 0.03024,0.01869 3.644302,0.04523 8.03125,0.05898 7.348967,0.02303 7.976642,0.01696 7.981022,-0.07717 0.0026,-0.05619 0.0024,-2.028725 -5e-4,-4.383412 l -0.0053,-4.28125 0.473595,-0.23862 0.473594,-0.238619 -0.01996,5.03542 -0.01996,5.035421 -10.09375,-0.01231 c -5.551562,-0.0068 -12.625,-0.03084 -15.718749,-0.05349 z"
     id="path3314"
     inkscape:connector-curvature="0" />
  <path
     style="fill:#999999;stroke:#999999;stroke-width:0.1875;stroke-miterlimit:4;stroke-opacity:1;stroke-dasharray:none"
     d="m 54.539096,49.879931 c -0.02557,-0.168079 -0.04649,-1.496985 -0.04649,-2.953125 0,-2.596469 0.0024,-2.647527 0.123684,-2.647527 0.120376,0 0.122707,0.03385 0.08714,1.265625 -0.0201,0.696094 -0.05483,2.025 -0.07719,2.953125 -0.02682,1.113372 -0.05647,1.583528 -0.08714,1.381902 z"
     id="path3316"
     inkscape:connector-curvature="0" />
  <path
     style="fill:#999999;stroke:#999999;stroke-width:0.1875;stroke-miterlimit:4;stroke-opacity:1;stroke-dasharray:none"
     d="m 54.705153,49.482404 c 0.03968,-0.749198 0.09076,-2.580313 0.115151,-4.12773 0.01515,-0.960897 0.0231,-1.019891 0.141051,-1.045588 1.133076,-0.246854 4.412637,-0.754234 7.65625,-1.184497 3.445671,-0.457066 4.152309,-0.564385 5.783437,-0.878347 0.619952,-0.11933 1.22854,-0.216963 1.352419,-0.216963 0.286438,0 0.270749,-0.0892 0.395734,2.25 0.05418,1.014062 0.11846,2.195312 0.142837,2.625 0.02438,0.429687 0.03614,1.336719 0.02614,2.015625 l -0.01818,1.234375 -7.815208,0 -7.815207,0 0.03558,-0.671875 z"
     id="path3318"
     inkscape:connector-curvature="0" />
  <path
     style="fill:#999999;stroke:#999999;stroke-width:0.1875;stroke-miterlimit:4;stroke-opacity:1;stroke-dasharray:none"
     d="m 70.328228,43.341779 c 0,-0.360938 0.01033,-0.508594 0.02296,-0.328125 0.01262,0.180469 0.01262,0.475781 0,0.65625 -0.01262,0.180469 -0.02296,0.03281 -0.02296,-0.328125 z"
     id="path3320"
     inkscape:connector-curvature="0" />
  <path
     style="fill:#999999;stroke:#999999;stroke-width:0.1875;stroke-miterlimit:4;stroke-opacity:1;stroke-dasharray:none"
     d="m 70.16011,42.559081 c -0.04998,-0.535253 -0.113968,-0.642716 -0.39694,-0.666665 -0.218437,-0.01849 -0.21118,-0.02398 0.156436,-0.118427 l 0.385499,-0.09904 0,0.610976 c 0,0.702305 -0.08922,0.870394 -0.144995,0.273156 l 0,0 z"
     id="path3322"
     inkscape:connector-curvature="0" />
  <path
     style="fill:#999999;stroke:#999999;stroke-width:0.1875;stroke-miterlimit:4;stroke-opacity:1;stroke-dasharray:none"
     d="m 70.32729,44.310529 c -1.9e-4,-0.309375 0.01038,-0.443817 0.02349,-0.298761 0.01311,0.145057 0.01326,0.398182 3.46e-4,0.5625 -0.01292,0.164319 -0.02364,0.04564 -0.02383,-0.263739 z"
     id="path3324"
     inkscape:connector-curvature="0" />
  <path
     style="fill:#999999;stroke:#999999;stroke-width:0.1875;stroke-miterlimit:4;stroke-opacity:1;stroke-dasharray:none"
     d="m 46.055106,51.210019 c -2.767188,-0.02091 -5.502601,-0.042 -6.078696,-0.04687 l -1.047445,-0.0089 0.420319,-0.398213 0.420319,-0.398213 4.220876,-0.03956 c 2.321482,-0.02176 5.381033,-0.05713 6.799001,-0.0786 l 2.578125,-0.03905 0,-2.991933 0,-2.991932 0.203125,5.44e-4 c 0.488142,0.0013 0.85935,0.07872 0.863337,0.180037 0.0026,0.06679 0.02298,0.05334 0.06049,-0.03996 0.06536,-0.162616 0.172982,-0.183607 0.226486,-0.04418 0.03178,0.08283 0.05136,0.08419 0.138664,0.0096 0.172473,-0.147358 2.458288,-0.519777 7.351652,-1.197779 1.409375,-0.195276 2.604688,-0.371458 2.65625,-0.391515 0.05156,-0.02006 0.131402,-0.03023 0.177421,-0.0226 0.116451,0.01931 1.83523,-0.244517 1.914338,-0.293839 0.03547,-0.02212 0.127773,-0.03203 0.205116,-0.02204 0.07734,0.01 0.140625,-0.01109 0.140625,-0.04684 0,-0.03576 0.03682,-0.05088 0.08182,-0.03362 0.045,0.01727 0.516092,-0.04032 1.046875,-0.127977 1.265683,-0.209019 1.248258,-0.20454 1.207631,-0.310413 -0.02445,-0.06371 0.04334,-0.109138 0.236581,-0.158537 0.37102,-0.09485 0.575892,-0.175136 1.066162,-0.417828 0.231174,-0.114436 0.43508,-0.208064 0.453125,-0.208064 0.01805,0 0.03281,2.296095 0.03281,5.102433 l 0,5.102433 -10.171875,-0.02431 c -5.594531,-0.01337 -12.435937,-0.04141 -15.203124,-0.06232 z m 20.614207,-0.977604 c -2.051248,-0.0091 -5.426248,-0.0091 -7.5,-4e-6 -2.073751,0.0091 -0.395458,0.01661 3.729542,0.01662 4.125,3e-6 5.821707,-0.0075 3.770458,-0.01661 z M 54.616649,50.076154 c -7.75e-4,-0.113715 -0.01255,-0.122685 -0.06154,-0.04687 -0.07831,0.121172 -0.07831,0.1875 0,0.1875 0.03438,0 0.06207,-0.06328 0.06154,-0.140625 z m 15.721427,-5.409738 c -0.08656,-0.08656 -0.09668,0.104592 -0.05106,0.964287 l 0.04934,0.929826 0.01735,-0.930571 c 0.0095,-0.511814 0.0025,-0.945408 -0.01563,-0.963542 l 0,0 z m -0.02882,-0.699637 c 0.03209,0 0.05835,-0.05625 0.05835,-0.125 0,-0.06875 -0.02813,-0.125 -0.0625,-0.125 -0.03465,0 -0.0625,-0.165437 -0.0625,-0.371311 0,-0.213547 -0.0307,-0.390286 -0.07226,-0.415969 -0.05191,-0.03208 -0.06071,0.01308 -0.03125,0.160374 0.02255,0.112767 0.04522,0.433547 0.05037,0.712843 0.0052,0.279297 0.02108,0.430469 0.0354,0.335938 0.01432,-0.09453 0.05229,-0.171875 0.08439,-0.171875 z"
     id="path3326"
     inkscape:connector-curvature="0" />
  <path
     style="fill:#999999;stroke:#999999;stroke-width:0.1875;stroke-miterlimit:4;stroke-opacity:1;stroke-dasharray:none"
     d="m 43.872277,50.157208 -3.714078,-0.03418 1.432828,-0.94678 c 1.674291,-1.106333 2.800717,-1.772418 4.172862,-2.467522 2.197875,-1.113404 3.542192,-1.570569 5.572466,-1.895041 0.55,-0.0879 1.166539,-0.187293 1.370086,-0.220875 0.260958,-0.04305 0.394573,-0.04074 0.453125,0.0079 0.06671,0.05536 0.08304,0.600329 0.08304,2.771184 l 0,2.702267 -2.578125,0.04242 c -1.417968,0.02333 -2.690625,0.04972 -2.828124,0.05863 -0.1375,0.0089 -1.921336,8.35e-4 -3.964079,-0.01796 z"
     id="path3328"
     inkscape:connector-curvature="0" />
  <path
     style="fill:#b3b3b3;stroke:#b3b3b3;stroke-width:0.18750000000000000;stroke-miterlimit:4;stroke-opacity:1;stroke-dasharray:none"
     d="m 47.930105,51.275828 c -3.867187,-0.02258 -7.509374,-0.04642 -8.093749,-0.05298 l -1.0625,-0.01193 0.494377,-0.465823 0.494377,-0.465823 2.286873,-0.01441 2.286873,-0.01441 -2.1875,-0.03247 -2.1875,-0.03247 1.09375,-0.720894 c 1.349258,-0.889302 2.145446,-1.40149 2.611582,-1.680035 0.196442,-0.117387 0.37123,-0.229887 0.388418,-0.25 0.01719,-0.02011 0.0676,-0.044 0.112027,-0.05308 0.04443,-0.0091 0.334619,-0.159605 0.64487,-0.334499 1.342718,-0.756917 3.272025,-1.596617 4.461852,-1.94195 0.75675,-0.219637 2.817819,-0.609305 3.479395,-0.657817 l 0.479395,-0.03515 0.02687,0.180465 c 0.01478,0.09925 0.03108,0.01874 0.03623,-0.178911 l 0.0094,-0.359375 0.296875,0.0027 c 0.163282,0.0015 0.421379,0.02676 0.573551,0.05613 0.187,0.0361 0.314226,0.03015 0.392532,-0.01835 0.08807,-0.05454 0.127107,-0.05369 0.162762,0.0035 0.03621,0.05812 0.117729,0.05493 0.357469,-0.01401 0.316536,-0.09102 2.332222,-0.448421 2.840963,-0.503727 0.226402,-0.02461 1.528525,-0.213557 3.813348,-0.553336 0.120313,-0.01789 1.00625,-0.14614 1.96875,-0.284996 2.851566,-0.411384 3.431727,-0.50404 3.546027,-0.566329 0.05969,-0.03253 0.214378,-0.05907 0.34375,-0.05898 0.129373,8.8e-5 0.600848,-0.06041 1.047723,-0.134439 0.644507,-0.106772 0.838917,-0.162753 0.940263,-0.270755 0.07027,-0.07488 0.257682,-0.168866 0.416472,-0.208849 0.15879,-0.03998 0.558329,-0.197837 0.887863,-0.350784 l 0.599152,-0.278085 0,5.183875 0,5.183875 -8.265625,-0.01245 c -4.546093,-0.0068 -11.429687,-0.03092 -15.296875,-0.0535 z"
     id="path3330"
     inkscape:connector-curvature="0" />
  <path
     style="fill:none;stroke:#cccccc;stroke-width:1px;stroke-linecap:butt;stroke-linejoin:miter;stroke-opacity:1"
     d="m 87.8125,15.0625 0,35.8125"
     id="path3332"
     inkscape:connector-curvature="0" />
  <path
     style="fill:#b3b3b3;stroke:#b3b3b3;stroke-width:0.18750000000000000;stroke-miterlimit:4;stroke-opacity:1;stroke-dasharray:none"
     d="m 71.612741,45.669904 8e-5,-4.609375 0.796794,-0.30234 c 0.438237,-0.166288 1.120675,-0.422101 1.516528,-0.568474 0.395854,-0.146373 0.933586,-0.383502 1.194961,-0.526954 0.261376,-0.14345 0.746602,-0.369593 1.07828,-0.50254 0.331679,-0.132945 0.848634,-0.382377 1.148789,-0.554293 0.300155,-0.171915 0.811392,-0.402153 1.136083,-0.511639 0.605566,-0.204197 1.120458,-0.463728 1.21037,-0.610084 0.02789,-0.04541 0.0773,-0.06612 0.109801,-0.04604 0.105108,0.06496 0.424391,-0.210449 0.391185,-0.337429 -0.02285,-0.08739 0.128466,-0.247219 0.615245,-0.649854 0.717238,-0.593256 0.957167,-0.832612 1.612961,-1.609104 0.524665,-0.62123 0.662236,-0.873505 0.937272,-1.71875 0.111854,-0.34375 0.299795,-0.800474 0.417647,-1.014941 0.23228,-0.422705 0.95799,-2.472436 0.960407,-2.712619 8.12e-4,-0.08109 0.07235,-0.31619 0.158959,-0.52244 0.192499,-0.4584 0.589557,-1.735969 0.589557,-1.896952 0,-0.06441 0.08398,-0.222792 0.186634,-0.351959 0.193996,-0.244111 0.336383,-0.632032 0.270888,-0.738006 -0.02079,-0.03363 0.03502,-0.205021 0.124011,-0.380866 0.08899,-0.175844 0.2025,-0.488467 0.252241,-0.694717 0.04974,-0.20625 0.177427,-0.614062 0.283746,-0.90625 0.14561,-0.400167 0.193514,-0.637986 0.194144,-0.963829 6.25e-4,-0.317828 0.0289,-0.463592 0.10664,-0.549491 0.08004,-0.08845 0.115361,-0.287463 0.14506,-0.817421 0.02489,-0.444087 0.07677,-0.780583 0.141749,-0.919259 0.09532,-0.203448 0.102665,0.825075 0.104941,14.703125 l 0.0024,14.921875 -7.84375,0 -7.84375,0 8.1e-5,-4.609375 z"
     id="path3334"
     inkscape:connector-curvature="0" />
  <path
     style="fill:#b3b3b3;stroke:#b3b3b3;stroke-width:0.1875;stroke-miterlimit:4;stroke-opacity:1;stroke-dasharray:none"
     d="m 87.409765,37.013657 c 0.0087,-7.60547 -0.0053,-14.51719 -0.03125,-15.359378 -0.02591,-0.842187 -0.03976,-2.663281 -0.03078,-4.046875 l 0.01633,-2.515625 0.468049,0 0.468049,0 0,17.875 0,17.875 -0.453125,3e-6 -0.453125,3e-6 0.01585,-13.828128 z"
     id="path3336"
     inkscape:connector-curvature="0" />
  <path
     style="fill:none;stroke:#b3b3b3;stroke-width:1px;stroke-linecap:butt;stroke-linejoin:miter;stroke-opacity:1"
     d="m 71.25,50.75 16.4375,0"
     id="path3340"
     inkscape:connector-curvature="0" />
  <path
     style="fill:none;stroke:#b3b3b3;stroke-width:1px;stroke-linecap:butt;stroke-linejoin:miter;stroke-opacity:1"
     d="m 87.875,17.25 0,-3.75 -0.0625,0"
     id="path3342"
     inkscape:connector-curvature="0" />
  <path
     style="fill:none;stroke:#cccccc;stroke-width:1px;stroke-linecap:butt;stroke-linejoin:miter;stroke-opacity:1"
     d="m 52.5625,0.25000011 35.25,0 0,12.49999989"
     id="path3344"
     inkscape:connector-curvature="0" />
  <path
     style="fill:none;stroke:#808080;stroke-width:1px;stroke-linecap:butt;stroke-linejoin:miter;stroke-opacity:1"
     d="m 38.486989,51.379182 c 0,-0.126394 -0.02078,-0.254508 0,-0.379182 0.01162,-0.0697 0.0632,-0.126394 0.09479,-0.189591 0.0316,-0.0632 0.0524,-0.133066 0.0948,-0.189591 0.147755,-0.197007 0.389539,-0.320348 0.568773,-0.473978 0.101787,-0.08725 0.189591,-0.189591 0.284387,-0.284386 0.0948,-0.0948 0.183495,-0.196107 0.284386,-0.284387 0.45063,-0.394301 0.62586,-0.469395 1.137547,-0.85316 0.161863,-0.121397 0.300482,-0.275085 0.473978,-0.379182 0.145913,-0.08755 0.31848,-0.120481 0.473977,-0.189591 0.82163,-0.365169 -0.104004,0.0046 0.85316,-0.473978 0.215241,-0.107621 0.455703,-0.163131 0.663569,-0.284386 0.349535,-0.203896 0.606561,-0.541114 0.947955,-0.758365 0.178831,-0.113801 0.389943,-0.170585 0.568774,-0.284386 0.170697,-0.108626 0.293008,-0.288698 0.473977,-0.379183 0.144112,-0.07205 0.32438,-0.03496 0.473978,-0.09479 0.171071,-0.06843 0.312226,-0.196159 0.473978,-0.284387 0.186086,-0.101502 0.373109,-0.20286 0.568773,-0.284386 1.32954,-0.553975 -0.117308,0.102299 1.042751,-0.284387 0.268122,-0.08937 0.493733,-0.279946 0.758364,-0.379182 0.121989,-0.04575 0.254393,-0.05736 0.379182,-0.0948 0.191419,-0.05742 0.372808,-0.150398 0.568773,-0.189591 0.12394,-0.02479 0.254059,0.01788 0.379183,0 0.09892,-0.01413 0.186403,-0.0752 0.284386,-0.09479 0.06197,-0.01239 0.128281,0.01533 0.189591,0 0.699845,-0.174961 0.420957,-0.229265 1.137547,-0.284387 0.220538,-0.01696 0.444087,0.02744 0.663569,0 0.289074,-0.03613 0.563617,-0.15742 0.853159,-0.189591 2.452558,-0.272506 -0.633569,0.279387 1.611525,-0.0948 0.635716,-0.105952 1.258555,-0.283578 1.89591,-0.379182 0.314048,-0.04711 0.634715,-0.04259 0.947956,-0.0948 0.257022,-0.04284 0.502856,-0.13849 0.758364,-0.189591 0.376948,-0.07539 0.758364,-0.126394 1.137547,-0.189591 0.379182,-0.0632 0.754712,-0.154788 1.137546,-0.189591 0.314687,-0.02861 0.635466,0.04687 0.947955,0 0.326249,-0.04894 0.624464,-0.219689 0.947956,-0.284387 1.242815,-0.248563 0.686214,0.03565 1.990706,-0.0948 0.289878,-0.02899 0.564086,-0.153456 0.85316,-0.189591 0.219482,-0.02743 0.444087,0.02744 0.663569,0 0.289074,-0.03613 0.568085,-0.129575 0.85316,-0.189591 2.343881,-0.493449 -0.370345,0.103365 1.801115,-0.379182 0.284386,-0.0632 0.572464,-0.11162 0.85316,-0.189591 1.239296,-0.344249 0.524952,-0.211437 1.801115,-0.758364 0.339947,-0.145692 0.69713,-0.247517 1.042751,-0.379182 0.318031,-0.121155 0.629924,-0.258028 0.947955,-0.379183 0.345622,-0.131665 0.705476,-0.227408 1.042751,-0.379182 0.296673,-0.133502 0.55915,-0.33471 0.85316,-0.473977 0.307566,-0.14569 0.636961,-0.240963 0.947955,-0.379183 0.258267,-0.114785 0.508989,-0.246181 0.758365,-0.379182 0.224784,-0.119885 0.430173,-0.277071 0.663569,-0.379182 0.657364,-0.287597 1.022423,-0.231561 1.611524,-0.663569 0.252251,-0.184984 0.43298,-0.452196 0.663568,-0.663568 0.331056,-0.303468 0.711696,-0.549693 1.042751,-0.85316 0.52467,-0.480947 0.598347,-0.604261 1.042751,-1.137547 0.157993,-0.189591 0.344635,-0.35859 0.473978,-0.568773 0.176053,-0.286087 0.363629,-0.901297 0.473978,-1.232342 0.0632,-0.189591 0.105843,-0.387321 0.189591,-0.568773 0.106757,-0.231308 0.272425,-0.432262 0.379182,-0.663569 7e-4,-0.0015 0.376859,-1.131157 0.379182,-1.137547 0.05815,-0.159918 0.140695,-0.31099 0.189591,-0.473977 0.329063,-1.096877 -0.21953,0.248225 0.284387,-1.137547 0.04829,-0.132805 0.141298,-0.246377 0.189591,-0.379182 0.07861,-0.216191 0.121939,-0.443701 0.189591,-0.663569 0.05877,-0.191009 0.141121,-0.374893 0.189591,-0.568773 0.04662,-0.186467 0.01526,-0.393795 0.0948,-0.568773 0.08372,-0.184194 0.304039,-0.28612 0.379182,-0.473978 0.05868,-0.146692 -0.0454,-0.322648 0,-0.473977 0.05294,-0.176479 0.22142,-0.300822 0.284386,-0.473978 0.06569,-0.180634 0.04422,-0.38334 0.0948,-0.568773 0.08955,-0.328335 0.28139,-0.621982 0.379182,-0.947956 0.316745,-1.055815 -0.122619,0.153031 0.0948,-1.042751 0.188079,-1.034434 0.186524,0.0276 0.284386,-0.85316 0.0027,-0.02451 -0.0028,-0.935542 0,-0.947955 0.03065,-0.137948 0.144904,-0.245121 0.189591,-0.379182 0.419309,-1.257926 -0.140328,0.204897 0.0948,-0.85316 0.07383,-0.332222 0.318303,-0.613118 0.379182,-0.947955 0.03392,-0.186533 0,-0.379183 0,-0.568774 0,-0.126394 -0.02742,-0.255798 0,-0.379182 0.03691,-0.166111 0.14832,-0.308895 0.189591,-0.473977 0.02299,-0.09197 -0.01558,-0.190881 0,-0.284387 0.01643,-0.09856 0.07837,-0.185823 0.0948,-0.284387 0.03117,-0.187011 -0.03718,-0.382864 0,-0.568773 0.01386,-0.06928 0.08094,-0.120307 0.09479,-0.189591 0.03099,-0.154924 0,-0.315985 0,-0.473978 0,-0.252788 0,-0.505576 0,-0.758364 0,-0.0447 -0.0043,-0.469681 0,-0.473978 0.02234,-0.02234 0.07245,0.02234 0.0948,0 0,-0.252788 -0.0316,0.0316 0.0948,-0.09479 0.04996,-0.04996 0.04483,-0.13963 0.0948,-0.189591 0.02234,-0.02234 0.07245,0.02234 0.09479,0 0.02234,-0.02234 0,-0.0632 0,-0.0948 0,-0.0316 0,-0.0632 0,-0.09479 0,-0.252789 0,-0.505577 0,-0.758365 0,-0.0316 0,-0.0632 0,-0.0948 0,-0.0316 -0.02234,-0.07245 0,-0.0948 0.0474,-0.0474 0.236989,0.0474 0.284387,0 0.02234,-0.02234 -0.02234,-0.07245 0,-0.0948 0.04469,-0.04469 0.133066,0.02826 0.189591,0 0.03997,-0.01999 0.05483,-0.07481 0.0948,-0.0948 0.05652,-0.02826 0.144904,0.04469 0.189591,0 0.02234,-0.02234 -0.02234,-0.07245 0,-0.0948 0.02234,-0.02234 0.07245,0.02234 0.0948,0 0.02234,-0.02234 0.02234,-0.07245 0,-0.0948 -0.02234,-0.02234 -0.0948,0.0316 -0.0948,0 0,-0.0632 0.144904,0.04469 0.189591,0 0.02234,-0.02234 -0.01413,-0.06653 0,-0.0948 0.01998,-0.03997 0.0632,-0.0632 0.0948,-0.0948 0.0316,-0.0316 0.05483,-0.07481 0.0948,-0.0948 0.02826,-0.01413 0.06653,0.01413 0.0948,0 0.113755,-0.05688 0.170632,-0.227509 0.284387,-0.284386 0.02826,-0.01413 0.06482,0.01 0.0948,0 0.06703,-0.02234 0.122561,-0.07245 0.189592,-0.0948 0.02998,-0.01 0.06482,0.01 0.09479,0 0.17217,-0.05739 0.175926,-0.08113 0.284387,-0.189591 0.0316,-0.0316 0.0524,-0.08066 0.09479,-0.09479 0.05995,-0.01999 0.129637,0.01998 0.189591,0 0.04239,-0.01413 0.05761,-0.07001 0.0948,-0.0948 0.687323,-0.343661 -0.149885,0.09992 0.284386,-0.189591 0.05879,-0.03919 0.126394,-0.0632 0.189592,-0.09479 0.0632,-0.0316 0.121044,-0.07766 0.189591,-0.0948 0.06131,-0.01533 0.133066,0.02826 0.189591,0 0.02826,-0.01413 -0.02234,-0.07245 0,-0.0948 0.02234,-0.02234 0.0632,0 0.09479,0 0,-0.0316 -0.02234,-0.07245 0,-0.0948 0.04469,-0.04469 0.144904,0.04469 0.189591,0 0,-0.252788 -0.0316,0.0316 0.0948,-0.0948 0.09351,-0.09351 -0.194244,-0.189591 0.09479,-0.189591"
     id="path3181"
     inkscape:connector-curvature="0" />
  <rect
     style="fill:#ffffff;fill-rule:evenodd;stroke:#ffffff;stroke-width:1.11801577px;stroke-linecap:butt;stroke-linejoin:miter;stroke-opacity:1"
     id="rect3244"
     width="4.1471696"
     height="5.592937"
     x="88.916122"
     y="8.4368029" />
  <path
     style="fill:#cccccc;stroke:none"
     d="m 54.136763,0.88821562 -0.1875,-0.12417635 0.234375,-4.1188e-4 c 0.192845,-3.388e-4 0.234375,0.0217372 0.234375,0.12458823 0,0.15609808 -0.04555,0.15609808 -0.28125,0 z"
     id="path3398"
     inkscape:connector-curvature="0" />
  <path
     style="fill:#cccccc;stroke:none"
     d="M 56.312685,2.523452 C 56.263271,2.4869249 56.186806,2.4304358 56.142763,2.3979206 56.09872,2.3654054 55.971976,2.2710924 55.861109,2.1883361 55.750242,2.1055799 55.600061,1.9939249 55.527373,1.940214 55.256539,1.740087 55.156719,1.6608371 54.99042,1.5139119 54.747163,1.2989949 54.626276,1.2059201 54.464053,1.1086448 l -0.04395,-0.026351 0,-0.16576632 0,-0.16576635 2.105469,0 c 1.868923,0 2.105469,6.5829e-4 2.105469,0.005859 0,0.005201 -0.23329,0.005859 -2.076172,0.005859 l -2.076172,0 0,0.0812106 c 0,0.0601837 0.0015,0.0871333 0.006,0.10408572 0.03875,0.14877534 0.292019,0.37066084 1.322167,1.15833564 0.296679,0.2268473 0.388552,0.2999504 0.546875,0.4351436 0.08311,0.070966 0.07333,0.066723 -0.04102,-0.017803 l 0,0 z"
     id="path3400"
     inkscape:connector-curvature="0" />
  <path
     style="fill:#cccccc;stroke:none"
     d="m 54.36542,1.0512029 c -0.02686,-0.015174 -0.11414,-0.0625665 -0.193966,-0.10531639 -0.07983,-0.0427499 -0.166838,-0.0903281 -0.19336,-0.10572928 -0.04758,-0.0276327 -0.130655,-0.0794634 -0.13787,-0.0860226 -0.0021,-0.001897 0.12314,-0.003374 0.286133,-0.003374 l 0.289844,0 -1.72e-4,0.0458984 c -1.63e-4,0.0436768 -4.3e-4,0.0451715 -0.0055,0.0308796 -0.01028,-0.028831 -0.03361,-0.0452725 -0.07968,-0.0561374 -0.02094,-0.00494 -0.06064,-0.006449 -0.205641,-0.007816 -0.113748,-0.001072 -0.178254,-3.2998e-4 -0.175781,0.002023 0.0049,0.004636 0.176131,0.11850401 0.235101,0.1563165 0.04942,0.0316919 0.115753,0.0676554 0.141894,0.0769355 0.0242,0.008593 0.05157,0.008721 0.06442,3.0156e-4 0.0057,-0.003753 0.01374,-0.0141566 0.01781,-0.02312 l 0.0074,-0.0162971 8.6e-5,0.0595703 c 4.8e-5,0.032764 -3.53e-4,0.059549 -8.9e-4,0.059524 -5.38e-4,-2.58e-5 -0.02295,-0.012462 -0.0498,-0.027636 l 0,0 z"
     id="path3402"
     inkscape:connector-curvature="0" />
  <path
     style="fill:#cccccc;stroke:none"
     d="m 52.457219,-0.13698914 c -0.05457,-0.0373952 -0.100121,-0.0689045 -0.101237,-0.0700207 -0.0011,-0.001116 0.04485,-0.002029 0.102137,-0.002029 l 0.104167,0 0,0.0703125 c 0,0.0386719 -0.0013,0.0701812 -0.0029,0.07002071 -0.0016,-1.6048e-4 -0.04757,-0.03088787 -0.102137,-0.0682831 z"
     id="path3404"
     inkscape:connector-curvature="0" />
  <path
     style="fill:#cccccc;stroke:none"
     d="m 86.999073,15.895697 c -4.26e-4,-0.01038 0.0044,-0.145734 0.01078,-0.300781 0.0064,-0.155048 0.01696,-0.466476 0.02357,-0.692062 0.01459,-0.4979 0.03079,-0.841419 0.05123,-1.086232 0.01591,-0.190603 0.02064,-0.219063 0.04171,-0.251219 0.0224,-0.03419 0.03612,-0.166398 0.04403,-0.424267 0.01065,-0.347329 0.02076,-0.436873 0.05578,-0.494062 0.01197,-0.01955 0.01713,-0.04825 0.02264,-0.126094 0.01374,-0.193798 0.02245,-0.637122 0.0307,-1.563438 0.0046,-0.513477 0.01039,-1.1594727 0.01293,-1.4355469 0.0026,-0.2802204 0.0077,-0.5019531 0.01149,-0.5019531 0.0039,0 0.0069,0.7976376 0.0069,1.867188 l 0,1.867187 0.07311,0 0.07311,0 0.005,0.04802 c 0.0028,0.02641 0.005,0.193404 0.005,0.371094 l 0,0.323072 -0.04662,0 -0.04662,0 -0.0022,0.08664 -0.0022,0.08664 -0.137506,0.07912 -0.137506,0.07912 -0.005,0.133069 c -0.0085,0.224576 -0.0058,1.346923 0.0037,1.537083 l 0.0089,0.177452 -0.03336,0.06413 c -0.01835,0.03527 -0.04131,0.08901 -0.05102,0.119423 -0.01014,0.03173 -0.01799,0.04725 -0.01844,0.03642 z"
     id="path3406"
     inkscape:connector-curvature="0" />
  <path
     style="fill:#cccccc;stroke:none"
     d="m 86.744195,17.395042 c 0.0063,-0.06072 0.0318,-0.173773 0.0672,-0.297708 0.08065,-0.282374 0.13436,-0.574814 0.162,-0.88198 0.0058,-0.06415 0.0063,-0.06055 0.01663,0.105889 l 0.01066,0.172294 -0.03166,0.08161 c -0.06085,0.156854 -0.06732,0.189759 -0.06946,0.35342 l -0.0019,0.146808 -0.05884,0.126629 c -0.03236,0.06965 -0.06789,0.151239 -0.07894,0.181317 l -0.0201,0.05469 0.0044,-0.04297 0,0 z"
     id="path3408"
     inkscape:connector-curvature="0" />
  <path
     style="fill:#cccccc;stroke:none"
     d="m 86.514338,18.939208 c -2.28e-4,-0.0036 0.01347,-0.0511 0.03044,-0.105468 0.06854,-0.219573 0.09446,-0.380857 0.128656,-0.800409 0.01009,-0.123746 0.02005,-0.22671 0.02215,-0.228809 0.0021,-0.0021 0.0061,0.06048 0.0089,0.139055 0.0028,0.07858 0.0089,0.214942 0.01351,0.303027 0.0099,0.18883 0.0042,0.24592 -0.03491,0.348394 -0.02587,0.06779 -0.167928,0.357533 -0.168763,0.34421 l 0,0 z"
     id="path3410"
     inkscape:connector-curvature="0" />
  <path
     style="fill:#cccccc;stroke:none"
     d="m 86.107804,20.474468 c -7.2e-5,-0.0057 0.01049,-0.03693 0.02347,-0.06934 0.0506,-0.126381 0.08911,-0.296621 0.121111,-0.535451 0.02052,-0.153142 0.04023,-0.264573 0.0418,-0.236351 4.8e-4,0.0086 -0.0026,0.03689 -0.0068,0.06288 -0.01975,0.121666 -0.02184,0.208085 -0.0076,0.313796 0.01361,0.10098 0.01358,0.104321 -0.0013,0.152344 -0.0084,0.027 -0.03482,0.08206 -0.0588,0.122341 -0.02398,0.04028 -0.05894,0.101806 -0.07769,0.136719 -0.01875,0.03491 -0.03414,0.05879 -0.03422,0.05306 l 0,0 z"
     id="path3414"
     inkscape:connector-curvature="0" />
  <path
     style="fill:#cccccc;stroke:none"
     d="m 82.75657,31.760207 c -2.52e-4,-0.0033 0.03791,-0.08236 0.08482,-0.175781 0.17983,-0.358192 0.371639,-0.858572 0.566726,-1.478447 0.07787,-0.247438 0.117056,-0.388646 0.190966,-0.688228 0.07451,-0.302008 0.130559,-0.478299 0.240556,-0.756598 0.101185,-0.256002 0.162473,-0.425042 0.256518,-0.707517 0.137927,-0.414276 0.271691,-0.865264 0.342001,-1.153068 0.01932,-0.07909 0.03893,-0.15787 0.04358,-0.175057 l 0.0084,-0.03125 -0.0042,0.03516 c -0.0023,0.01934 -0.01083,0.104049 -0.01889,0.188252 -0.01695,0.17702 -0.02505,0.209007 -0.121447,0.479573 -0.06987,0.196101 -0.09872,0.29119 -0.170726,0.562644 -0.06435,0.242579 -0.08837,0.308837 -0.159061,0.438615 -0.03477,0.06384 -0.07562,0.14439 -0.09078,0.179001 -0.05082,0.116018 -0.233185,0.639432 -0.2626,0.753682 -0.02105,0.08174 -0.03626,0.273714 -0.02403,0.303239 0.01505,0.03634 -0.03186,0.183197 -0.136418,0.427025 -0.04096,0.09551 -0.12362,0.330189 -0.257678,0.731531 -0.134914,0.403904 -0.206651,0.607488 -0.226681,0.643305 -0.02297,0.04107 -0.217437,0.36233 -0.25311,0.418133 -0.0041,0.0064 -0.0077,0.0091 -0.008,0.0058 z"
     id="path3416"
     inkscape:connector-curvature="0" />
  <path
     style="fill:#cccccc;stroke:none"
     d="m 85.042079,25.184104 c 0.0028,-0.01074 0.01871,-0.04662 0.03529,-0.07973 0.06844,-0.136725 0.150374,-0.367927 0.175853,-0.496221 0.0074,-0.0374 0.01478,-0.06418 0.01634,-0.0595 0.0055,0.01643 -0.03791,0.36498 -0.04862,0.390622 -0.006,0.01427 -0.04355,0.07089 -0.08353,0.125817 -0.03998,0.05493 -0.07894,0.108569 -0.08658,0.119206 l -0.01389,0.01934 0.0052,-0.01953 z"
     id="path3420"
     inkscape:connector-curvature="0" />
  <path
     style="fill:#cccccc;stroke:none"
     d="m 79.560155,35.691108 c -0.117019,-0.107396 -0.350697,-0.245755 -0.519284,-0.307463 -0.821326,-0.300635 -0.988615,-0.391613 -1.632856,-0.888019 -0.213858,-0.164784 -0.431827,-0.299607 -0.484375,-0.299607 -0.06391,0 -0.09554,-0.06043 -0.09554,-0.182526 0,-0.179464 -0.0071,-0.183239 -0.421875,-0.225136 -0.232031,-0.02344 -0.499007,-0.07966 -0.593279,-0.12495 -0.09427,-0.04529 -0.358336,-0.102357 -0.586808,-0.126824 -0.228471,-0.02447 -0.488839,-0.08281 -0.578595,-0.12964 -0.08976,-0.04684 -0.227409,-0.08533 -0.305895,-0.08554 -0.156529,-4.37e-4 -0.730735,-0.271729 -0.794928,-0.375595 -0.02212,-0.0358 -0.200712,-0.146101 -0.396862,-0.245117 -0.19615,-0.09901 -0.393703,-0.246042 -0.439008,-0.326726 -0.0453,-0.08068 -0.199177,-0.232109 -0.341936,-0.336501 -0.14276,-0.104392 -0.308661,-0.293508 -0.368669,-0.420257 -0.06001,-0.12675 -0.178442,-0.275885 -0.263188,-0.331413 -0.08474,-0.05553 -0.170585,-0.152955 -0.190755,-0.216506 -0.02017,-0.06355 -0.132847,-0.147287 -0.250392,-0.186081 -0.257948,-0.08513 -0.49303,-0.350169 -0.594251,-0.669976 -0.04108,-0.12978 -0.170055,-0.325935 -0.286621,-0.435902 -0.118996,-0.112259 -0.21277,-0.263003 -0.213836,-0.34375 -0.001,-0.0791 -1.87e-4,-1.345074 0.0018,-2.813285 0.0032,-2.260324 -0.01091,-2.70454 -0.09185,-2.898258 -0.05258,-0.12583 -0.09561,-0.373005 -0.09564,-0.549275 -3.5e-5,-0.226265 -0.05516,-0.43699 -0.1875,-0.71673 -0.134168,-0.283604 -0.187453,-0.489531 -0.187453,-0.724442 0,-0.434273 -0.132208,-0.853932 -0.392607,-1.246222 -0.117046,-0.17633 -0.269083,-0.447856 -0.337858,-0.603393 -0.183584,-0.415171 -0.863377,-1.424409 -1.177708,-1.748456 -0.203765,-0.210062 -0.328794,-0.428369 -0.493968,-0.862497 -0.121632,-0.319686 -0.30217,-0.699374 -0.401195,-0.84375 -0.09902,-0.144377 -0.271722,-0.445315 -0.383771,-0.668753 -0.112049,-0.223437 -0.255791,-0.480031 -0.319426,-0.570207 -0.06364,-0.09018 -0.267434,-0.441739 -0.452884,-0.78125 -0.9132,-1.671835 -1.806595,-2.977061 -2.473256,-3.613361 -0.105779,-0.100963 -0.192327,-0.221429 -0.192327,-0.267703 0,-0.148036 -0.29558,-0.6638752 -0.564358,-0.9849046 -0.143292,-0.1711462 -0.330715,-0.4523962 -0.416499,-0.625 C 61.943087,8.7316759 61.625148,8.3445472 61.263708,7.9772691 60.844886,7.5516803 60.613526,7.2625341 60.538574,7.0710191 60.347445,6.5826496 60.030539,6.208293 58.342878,4.4772691 57.125327,3.2284346 56.42738,2.5704363 55.657948,1.9460191 54.615551,1.1000814 54.445901,0.93239208 54.538632,0.83964181 c 0.02743,-0.02743 7.402211,-0.0590302 16.388414,-0.0702226 l 16.338552,-0.0203499 -0.0029,5.36409983 c -0.0022,4.1290508 -0.02385,5.6159288 -0.09382,6.4578498 -0.04999,0.601563 -0.119281,1.670313 -0.153973,2.375 -0.03626,0.736471 -0.114254,1.546996 -0.183438,1.90625 -0.0662,0.34375 -0.151187,0.878125 -0.188865,1.1875 -0.03768,0.309375 -0.135297,0.7875 -0.216933,1.0625 -0.277041,0.933243 -0.410052,1.624534 -0.410052,2.131143 0,0.275059 -0.02967,0.529774 -0.06593,0.566033 -0.0958,0.0958 -0.243213,0.777228 -0.266852,1.233536 -0.01281,0.247221 -0.09124,0.577604 -0.210767,0.887772 -0.411255,1.067235 -0.581455,1.576213 -0.581455,1.738827 0,0.09338 -0.07121,0.263138 -0.158241,0.377244 -0.0939,0.123108 -0.268573,0.57513 -0.429587,1.111683 -0.14924,0.49732 -0.32809,1.05599 -0.397444,1.24149 -0.06935,0.1855 -0.257463,0.77321 -0.418022,1.306022 -0.160558,0.532813 -0.441355,1.320313 -0.623993,1.75 -0.182638,0.429688 -0.421951,1.054473 -0.531807,1.388411 -0.226729,0.689208 -0.307459,0.82206 -0.980157,1.612997 -0.400809,0.471259 -1.194328,1.206719 -1.503965,1.393925 -0.04301,0.026 -0.164336,-0.03746 -0.287227,-0.150244 l 0,0 z"
     id="path3430"
     inkscape:connector-curvature="0" />
  <path
     style="fill:none;stroke:#000000;stroke-width:1px;stroke-linecap:butt;stroke-linejoin:miter;stroke-opacity:1"
     d="M 53.75,16.9375 66.25,16.875"
     id="path2873" />
  <path
     style="fill:none;stroke:#000000;stroke-width:1px;stroke-linecap:butt;stroke-linejoin:miter;stroke-opacity:1"
     d="m 73.671688,33.808466 -2.872622,0 0,-2.430679"
     id="path2875" />
  <path
     style="fill:none;stroke:#808080;stroke-width:1px;stroke-linecap:butt;stroke-linejoin:miter;stroke-opacity:1"
     d="m 51.568773,-0.09479557 c 0.369009,0.1873311 0.693388,0.44521654 1.042751,0.66356878 0.156243,0.097652 0.318534,0.18546762 0.473978,0.28438661 0.192237,0.12233252 0.374714,0.25976128 0.568773,0.37918218 0.216965,0.1335166 0.454111,0.2341728 0.663569,0.3791821 0.202911,0.1404767 0.374716,0.3215041 0.568773,0.4739777 0.248465,0.1952225 0.507359,0.3768281 0.758364,0.5687733 0.28619,0.2188512 0.591233,0.4161931 0.85316,0.6635687 0.309064,0.2918937 0.561267,0.6388916 0.85316,0.9479554 0.245466,0.2599046 0.505576,0.5055762 0.758364,0.7583643 0.22119,0.2211896 0.44238,0.4423792 0.663569,0.6635688 0.252788,0.2527881 0.541203,0.4743843 0.758365,0.7583643 1.031402,1.3487573 -0.0194,0.3748637 0.853159,1.4219331 0.171648,0.2059773 0.379183,0.3791822 0.568774,0.5687733 0.157992,0.1579925 0.342559,0.2932775 0.473977,0.4739776 0.124675,0.1714272 0.170586,0.389943 0.284387,0.5687733 0.403591,0.6342141 0.399766,0.3255548 0.758364,1.0427511 0.05826,0.116529 0.02253,0.270779 0.0948,0.379182 0.123939,0.185909 0.324507,0.3079 0.473977,0.473978 0.135352,0.15039 0.25106,0.317383 0.379183,0.473977 0.156278,0.191007 0.333501,0.365863 0.473977,0.568774 0.14501,0.209457 0.250819,0.443516 0.379182,0.663568 0.09284,0.159151 0.185468,0.318534 0.284387,0.473978 0.122333,0.192237 0.266132,0.370935 0.379182,0.568773 0.140222,0.245388 0.240622,0.512035 0.379182,0.758365 0.146147,0.259816 0.327831,0.498547 0.473978,0.758364 0.138561,0.24633 0.238961,0.512976 0.379182,0.758364 0.113051,0.197838 0.27728,0.364969 0.379182,0.568773 0.120738,0.241476 0.178038,0.510216 0.284387,0.758365 0.387387,0.903902 0.131259,0.276288 0.758364,1.042751 0.14429,0.176354 0.252788,0.379182 0.379183,0.568773 0.126394,0.189591 0.27007,0.368736 0.379182,0.568773 0.08148,0.149386 0.108108,0.324592 0.189591,0.473978 0.314447,0.576487 0.461129,0.49168 0.568773,1.137546 0.03117,0.187012 -0.03391,0.382241 0,0.568774 0.06088,0.334836 0.318303,0.613118 0.379182,0.947955 0.03392,0.186533 -0.03391,0.38224 0,0.568773 0.03044,0.167419 0.159152,0.306559 0.189591,0.473978 0.03391,0.186533 0,0.379182 0,0.568773 0,0.537175 0,1.07435 0,1.611524 0,0.789963 0,1.579926 0,2.369889 0,0.222312 0.02234,-0.04469 -0.0948,0.189591 -0.01258,0.02515 -0.006,0.645556 0,0.663569 0.01413,0.04239 0.07481,0.05483 0.0948,0.0948 0.01413,0.02826 -0.01,0.06482 0,0.0948 0.02234,0.06703 0.07245,0.12256 0.0948,0.189591 0.01,0.02998 -0.01753,0.0685 0,0.0948 0.01853,0.228965 0.284386,0.157993 0.379182,0.284387 0.05995,0.07994 0.05769,0.19161 0.0948,0.284387 0.02624,0.0656 0.0632,0.126394 0.0948,0.189591 0.0316,0.0632 0.0524,0.133066 0.0948,0.189591 0.05362,0.0715 0.126394,0.126394 0.189591,0.189591 0.0632,0.0632 0.112953,0.143608 0.189591,0.189591 0.08568,0.05141 0.21373,0.02414 0.284386,0.0948 0.07066,0.07066 0.02414,0.213731 0.0948,0.284387 0.07066,0.07066 0.21373,0.02414 0.284386,0.0948 0.07066,0.07066 0.04339,0.198703 0.0948,0.284386 0.04598,0.07664 0.126394,0.126394 0.189591,0.189591 0.0632,0.0632 0.119802,0.13376 0.189591,0.189591 0.08897,0.07117 0.203826,0.109031 0.284387,0.189591 0.08056,0.08056 0.10903,0.203826 0.189591,0.284387 0.114392,0.114392 0.32437,0.209583 0.473978,0.284387 0.0632,0.0316 0.133065,0.0524 0.189591,0.0948 0.0715,0.05362 0.118091,0.135967 0.189591,0.189591 0.05653,0.04239 0.126394,0.0632 0.189591,0.0948 0.0632,0.0316 0.126394,0.0632 0.189591,0.0948 0.0632,0.0316 0.126394,0.0632 0.189591,0.0948 0.0632,0.0316 0.121044,0.07766 0.189591,0.0948 0.06131,0.01533 0.127621,-0.01239 0.189591,0 0.190363,-0.02175 0.308895,0.148321 0.473978,0.189592 0.12262,0.03066 0.256562,-0.03066 0.379182,0 0.06855,0.01714 0.121044,0.07766 0.189591,0.09479 0.06131,0.01533 0.129637,-0.01998 0.189591,0 0.04239,0.01413 0.0524,0.08066 0.0948,0.0948 0.05995,0.01998 0.128281,-0.01533 0.189591,0 0.06855,0.01714 0.121044,0.07766 0.189591,0.09479 0.07036,0.01759 0.350085,-0.0291 0.379182,0 0.02234,0.02234 -0.01413,0.06653 0,0.0948 0.0081,0.01626 0.27261,0.280461 0.284387,0.284386 0.05995,0.01999 0.129637,-0.01998 0.189591,0 0.04239,0.01413 0.05905,0.06798 0.0948,0.0948 0.09114,0.06836 0.195422,0.118419 0.284387,0.189591 0.06979,0.05583 0.118092,0.135967 0.189591,0.189591 0.05652,0.04239 0.129004,0.05844 0.189591,0.0948 0.09769,0.05862 0.193243,0.121233 0.284387,0.189591 0.01971,0.01478 0.181685,0.186956 0.189591,0.189591 0.05995,0.01998 0.126394,0 0.189591,0 0.0316,0 0.06653,-0.01413 0.09479,0 0.394517,0.197258 -0.10134,-0.0065 0.0948,0.189591 0.04469,0.04469 0.133066,-0.02826 0.189591,0 0.03997,0.01998 0.05483,0.07481 0.09479,0.09479 0.02826,0.01413 0.07245,-0.02234 0.0948,0 0.02234,0.02234 -0.02234,0.07245 0,0.0948 0.02234,0.02234 0.07245,-0.02234 0.0948,0 0.02234,0.02234 -0.02234,0.07245 0,0.09479 0.02234,0.02234 0.07245,-0.02234 0.0948,0 0.02234,0.02234 -0.02234,0.07245 0,0.0948 0.02234,0.02234 0.07245,-0.02234 0.0948,0 0.04469,0.04469 -0.04469,0.144904 0,0.189591 0.02234,0.02234 0.07245,-0.02234 0.0948,0 0.02234,0.02234 -0.02234,0.07245 0,0.0948 0.02234,0.02234 0.07245,-0.02234 0.0948,0 0.02234,0.02234 -0.01413,0.06653 0,0.0948 0.01998,0.03997 0.07481,0.05483 0.0948,0.0948 0.01413,0.02826 0,0.0632 0,0.0948 0.0316,0.0316 0.07481,0.05483 0.0948,0.0948 0.01413,0.02826 -0.02234,0.07245 0,0.0948 0.02234,0.02234 0.07245,-0.02234 0.0948,0 0.126394,0.126394 -0.157992,0.0948 0.0948,0.0948"
     id="path3183"
     inkscape:connector-curvature="0" />
  <path
     style="fill:#cccccc;fill-opacity:1;stroke:none"
     d="m 54.43845,9.4192356 0,-6.9857411 0.331456,0.2485513 c 0.182301,0.1367032 0.510443,0.3831837 0.729204,0.5477344 0.218761,0.1645507 1.164572,1.0909771 2.101802,2.0587254 1.231076,1.2711615 1.753006,1.8737393 1.880415,2.170973 0.100394,0.2342087 0.454448,0.7011666 0.821956,1.0840684 0.355079,0.3699507 0.747971,0.8516239 0.873095,1.0703851 0.125124,0.2187612 0.347997,0.5489659 0.495273,0.7337869 0.147277,0.184822 0.292303,0.447712 0.322281,0.584199 0.02998,0.136488 0.175561,0.36313 0.323519,0.50365 0.599393,0.56926 1.889054,2.426276 2.417947,3.481665 0.08527,0.170148 0.295284,0.538668 0.466704,0.818933 0.17142,0.280265 0.295703,0.523549 0.276185,0.540629 -0.01952,0.01708 -2.511466,0.05291 -5.537662,0.07962 l -5.502175,0.04856 0,-6.9857414 z"
     id="path2881" />
  <path
     style="fill:#cccccc;fill-opacity:1;stroke:none"
     d="m 71.37955,33.243084 c -0.03241,-0.03241 -0.05893,-0.194534 -0.05893,-0.360276 l 0,-0.301351 0.25429,0.205597 c 0.13986,0.113078 0.299296,0.275202 0.354303,0.360276 0.0882,0.136408 0.06512,0.154679 -0.195365,0.154679 -0.162457,0 -0.321893,-0.02652 -0.354302,-0.05892 z"
     id="path2883" />
  <path
     style="fill:#f2f2f2;fill-opacity:1;stroke:none"
     d="m 37.467887,8.6416603 0,-7.77817461 7.295682,0 7.295681,0 0.659097,0.41984461 0.659099,0.4198447 1.77e-4,7.3583299 1.67e-4,7.3583301 -7.954952,0 -7.954951,0 0,-7.7781747 z"
     id="path2889" />
  <path
     style="fill:none;stroke:#000000;stroke-width:1px;stroke-linecap:butt;stroke-linejoin:miter;stroke-opacity:1"
     d="m 37.6875,50.8125 50.25,0 0.125,-50.6875 -37.125,0.125"
     id="path2872"
     sodipodi:nodetypes="cccc" />
</svg>
