<?xml version="1.0" encoding="UTF-8" standalone="no"?>
<!-- Created with Inkscape (http://www.inkscape.org/) -->

<svg
   xmlns:dc="http://purl.org/dc/elements/1.1/"
   xmlns:cc="http://creativecommons.org/ns#"
   xmlns:rdf="http://www.w3.org/1999/02/22-rdf-syntax-ns#"
   xmlns:svg="http://www.w3.org/2000/svg"
   xmlns="http://www.w3.org/2000/svg"
   version="1.1"
   width="101"
   height="54.711147"
   id="svg3937">
  <defs
     id="defs3939" />
  <metadata
     id="metadata3942">
    <rdf:RDF>
      <cc:Work
         rdf:about="">
        <dc:format>image/svg+xml</dc:format>
        <dc:type
           rdf:resource="http://purl.org/dc/dcmitype/StillImage" />
        <dc:title></dc:title>
      </cc:Work>
    </rdf:RDF>
  </metadata>
  <g
     transform="translate(-1063.5776,-356.43518)"
     id="layer1">
    <rect
       width="100.26786"
       height="54.19643"
       x="0.26785713"
       y="0.24686146"
       transform="translate(1063.5776,356.43518)"
       id="rect3982"
       style="fill:#ffffff;fill-opacity:1;stroke:#f2f2f2;stroke-width:1;stroke-linecap:square;stroke-linejoin:miter;stroke-miterlimit:4;stroke-dasharray:none" />
    <rect
       width="20"
       height="20"
       x="1087.5776"
       y="359.07013"
       id="rect3680-0-7"
       style="fill:#ffffff;stroke:#000000;stroke-width:3;stroke-miterlimit:4;stroke-dasharray:none" />
    <path
       d="m 1097.7288,390.90629 -9.9808,18.0185 20.1398,0 -10.159,-18.0185 z"
       id="path3856"
       style="fill:none;stroke:#000000;stroke-width:2.83593011;stroke-linecap:butt;stroke-linejoin:miter;stroke-miterlimit:4;stroke-opacity:1;stroke-dasharray:none" />
    <path
       d="m 115.9375,109.15625 a 9.90625,9.96875 0 1 1 -19.8125,0 9.90625,9.96875 0 1 1 19.8125,0 z"
       transform="matrix(1.0709424,0,0,1.0527645,1015.9351,254.35682)"
       id="path3861"
       style="fill:#ffffff;stroke:#000000;stroke-width:3;stroke-linecap:square;stroke-linejoin:round;stroke-miterlimit:4;stroke-dasharray:none" />
    <path
       d="m 115.9375,109.15625 a 9.90625,9.96875 0 1 1 -19.8125,0 9.90625,9.96875 0 1 1 19.8125,0 z"
       transform="matrix(1.0709424,0,0,1.0527645,1015.8278,283.46265)"
       id="path3861-4"
       style="fill:#000000;stroke:#000000;stroke-width:3;stroke-linecap:square;stroke-linejoin:round;stroke-miterlimit:4;stroke-dasharray:none" />
  </g>
</svg>
