<?xml version="1.0" encoding="UTF-8" standalone="no"?>
<!-- Created with Inkscape (http://www.inkscape.org/) -->

<svg
   xmlns:dc="http://purl.org/dc/elements/1.1/"
   xmlns:cc="http://creativecommons.org/ns#"
   xmlns:rdf="http://www.w3.org/1999/02/22-rdf-syntax-ns#"
   xmlns:svg="http://www.w3.org/2000/svg"
   xmlns="http://www.w3.org/2000/svg"
   version="1.1"
   width="148"
   height="82.088318"
   id="svg2882">
  <defs
     id="defs2884" />
  <metadata
     id="metadata2887">
    <rdf:RDF>
      <cc:Work
         rdf:about="">
        <dc:format>image/svg+xml</dc:format>
        <dc:type
           rdf:resource="http://purl.org/dc/dcmitype/StillImage" />
        <dc:title></dc:title>
      </cc:Work>
    </rdf:RDF>
  </metadata>
  <g
     transform="translate(-1360.8998,-759.88945)"
     id="layer1">
    <rect
       width="147.356"
       height="81.696091"
       x="0.37880722"
       y="0.26596156"
       transform="translate(1360.8998,759.88945)"
       id="rect2909"
       style="fill:#ffffff;fill-opacity:1;stroke:#f2f2f2;stroke-width:1;stroke-linecap:square;stroke-linejoin:miter;stroke-miterlimit:4;stroke-dasharray:none" />
    <path
       d="m 1434.2174,839.61075 0,-77.08832"
       id="path5303"
       style="fill:none;stroke:#000000;stroke-width:5;stroke-linecap:butt;stroke-linejoin:miter;stroke-miterlimit:4;stroke-opacity:1;stroke-dasharray:none" />
    <path
       d="m 72.225908,46.083107 a 22.602163,22.602163 0 1 1 -45.204326,0 22.602163,22.602163 0 1 1 45.204326,0 z"
       transform="translate(1384.6734,754.25208)"
       id="path3428"
       style="fill:#ffffff;stroke:#000000;stroke-width:5;stroke-miterlimit:4;stroke-dasharray:none" />
    <path
       d="m 1457.9674,771.8485 -47.4107,56.96429"
       id="path5301"
       style="fill:none;stroke:#000000;stroke-width:5;stroke-linecap:butt;stroke-linejoin:miter;stroke-miterlimit:4;stroke-opacity:1;stroke-dasharray:none" />
    <path
       d="m 1410.5567,771.8485 47.4107,56.96429"
       id="path5299"
       style="fill:none;stroke:#000000;stroke-width:5;stroke-linecap:butt;stroke-linejoin:miter;stroke-miterlimit:4;stroke-opacity:1;stroke-dasharray:none" />
    <path
       d="M 84.600276,8.8522579 89.398501,2.0337282"
       transform="translate(1360.8998,759.88945)"
       id="path3691"
       style="fill:none;stroke:#b3b3b3;stroke-width:1px;stroke-linecap:butt;stroke-linejoin:miter;stroke-opacity:1" />
    <path
       d="m 1417.7209,839.57865 4.7982,-6.81853"
       id="path3691-1"
       style="fill:none;stroke:#b3b3b3;stroke-width:1px;stroke-linecap:butt;stroke-linejoin:miter;stroke-opacity:1" />
    <path
       d="m 1451.1822,839.45239 -4.7982,-6.81853"
       id="path3691-9"
       style="fill:none;stroke:#b3b3b3;stroke-width:1px;stroke-linecap:butt;stroke-linejoin:miter;stroke-opacity:1" />
    <path
       d="m 1423.5292,768.86797 -4.7982,-6.81853"
       id="path3691-6"
       style="fill:none;stroke:#b3b3b3;stroke-width:1px;stroke-linecap:butt;stroke-linejoin:miter;stroke-opacity:1" />
    <path
       d="m 1464.4404,788.43968 c 10.3541,-5.42957 10.3541,-5.42957 10.3541,-5.42957"
       id="path3733"
       style="fill:none;stroke:#b3b3b3;stroke-width:1px;stroke-linecap:butt;stroke-linejoin:miter;stroke-opacity:1" />
    <path
       d="m 1392.972,817.16589 c 10.3541,-5.42957 10.3541,-5.42957 10.3541,-5.42957"
       id="path3733-1"
       style="fill:none;stroke:#b3b3b3;stroke-width:1px;stroke-linecap:butt;stroke-linejoin:miter;stroke-opacity:1" />
    <path
       d="m 1464.4406,809.96856 c 10.3541,5.42957 10.3541,5.42957 10.3541,5.42957"
       id="path3733-9"
       style="fill:none;stroke:#b3b3b3;stroke-width:1px;stroke-linecap:butt;stroke-linejoin:miter;stroke-opacity:1" />
    <path
       d="m 1402.6949,789.26044 c -10.3541,-5.42957 -10.3541,-5.42957 -10.3541,-5.42957"
       id="path3733-8"
       style="fill:none;stroke:#b3b3b3;stroke-width:1px;stroke-linecap:butt;stroke-linejoin:miter;stroke-opacity:1" />
    <path
       d="m 31.188459,31.643826 a 11.174812,11.427351 0 1 1 -22.3496242,0 11.174812,11.427351 0 1 1 22.3496242,0 z"
       transform="matrix(1.741931,0,0,1.6923857,1399.5261,746.75541)"
       id="path2990"
       style="fill:#ffffff;fill-opacity:1;stroke:#ffffff" />
  </g>
</svg>
