<?xml version="1.0" encoding="UTF-8" standalone="no"?>
<!-- Created with Inkscape (http://www.inkscape.org/) -->

<svg
   xmlns:dc="http://purl.org/dc/elements/1.1/"
   xmlns:cc="http://creativecommons.org/ns#"
   xmlns:rdf="http://www.w3.org/1999/02/22-rdf-syntax-ns#"
   xmlns:svg="http://www.w3.org/2000/svg"
   xmlns="http://www.w3.org/2000/svg"
   version="1.1"
   width="122"
   height="68"
   id="svg2858">
  <defs
     id="defs2860" />
  <metadata
     id="metadata2863">
    <rdf:RDF>
      <cc:Work
         rdf:about="">
        <dc:format>image/svg+xml</dc:format>
        <dc:type
           rdf:resource="http://purl.org/dc/dcmitype/StillImage" />
        <dc:title></dc:title>
      </cc:Work>
    </rdf:RDF>
  </metadata>
  <g
     transform="translate(-443.81994,-276.47489)"
     id="layer1">
    <rect
       width="121.09203"
       height="67.427681"
       x="0.50507629"
       y="0.19351028"
       transform="translate(443.81994,276.47489)"
       id="rect2885"
       style="fill:#ffffff;fill-opacity:1;stroke:#f2f2f2;stroke-width:1;stroke-linecap:square;stroke-linejoin:miter;stroke-miterlimit:4;stroke-dasharray:none" />
    <path
       d="m 462.82572,340.46389 c 82.82094,-0.15076 82.82094,0 82.82094,0"
       id="path3771"
       style="fill:none;stroke:#000000;stroke-width:2.01155853;stroke-linecap:butt;stroke-linejoin:miter;stroke-miterlimit:4;stroke-opacity:1;stroke-dasharray:none" />
    <path
       d="m 465.82514,281.24948 -1.32582,4.41942 2.65165,0.0442 -1.32583,-4.46361 z"
       id="path3779"
       style="fill:none;stroke:#000000;stroke-width:2;stroke-linecap:butt;stroke-linejoin:miter;stroke-miterlimit:4;stroke-opacity:1;stroke-dasharray:none" />
    <path
       d="m 546.66882,340.42544 -4.41941,-1.3258 -0.0442,2.6517 4.46361,-1.3259 z"
       id="path3779-8"
       style="fill:none;stroke:#000000;stroke-width:2;stroke-linecap:butt;stroke-linejoin:miter;stroke-miterlimit:4;stroke-opacity:1;stroke-dasharray:none" />
    <path
       d="m 467.08096,331.86486 c 0.24286,0 0.4857,0 0.72855,0 0.0486,0 0.11132,-0.0293 0.14571,0 0.0344,0.0293 -0.0344,0.0948 0,0.12403 0.0344,0.0293 0.0971,0 0.1457,0 0.0486,0 0.0971,0 0.14571,0 0.33999,0 0.67998,0 1.01996,0 0.0486,0 0.11132,-0.0293 0.14571,0 0.0344,0.0293 -0.0344,0.0948 0,0.12403 0.005,0.004 0.4018,0 0.43713,0 0.72854,0 1.45708,0 2.18563,0 0.33999,0 0.67996,0 1.01996,0 0.0486,0 0.11132,0.0293 0.1457,0 0.0344,-0.0293 -0.0344,-0.0948 0,-0.12403 0.0351,-0.0299 0.54777,0.0299 0.58284,0 0.0344,-0.0293 -0.0344,-0.0948 0,-0.12403 0.0351,-0.0299 0.54777,0.0299 0.58283,0 0.0344,-0.0293 -0.0344,-0.0948 0,-0.12402 0.0351,-0.0299 0.54777,0.0299 0.58284,0 0.0344,-0.0293 -0.0344,-0.0948 0,-0.12403 0.0729,-0.062 0.36427,0.062 0.43712,0 0.0344,-0.0293 -0.0344,-0.0948 0,-0.12403 0.0687,-0.0584 0.20453,0.037 0.29142,0 0.0614,-0.0262 0.0843,-0.0978 0.14571,-0.12403 0.0578,-0.0246 0.40734,0.0254 0.43712,0 0.0344,-0.0293 -0.0344,-0.0947 0,-0.12402 0.0687,-0.0584 0.22273,0.0584 0.29142,0 0.0344,-0.0293 -0.0344,-0.0948 0,-0.12403 0.0728,-0.062 0.36427,0.062 0.43713,0 0.0344,-0.0293 -0.0344,-0.0948 0,-0.12403 0.0344,-0.0293 0.11132,0.0293 0.1457,0 0.0344,-0.0293 -0.0344,-0.0947 0,-0.12402 0.0729,-0.062 0.36428,0.062 0.43713,0 0.0344,-0.0293 -0.0344,-0.0948 0,-0.12403 0.0687,-0.0584 0.22272,0.0584 0.29142,0 0.0344,-0.0293 -0.0344,-0.0948 0,-0.12403 0.0485,-0.0413 0.24293,0.0413 0.29141,0 0.0344,-0.0293 -0.0344,-0.0948 0,-0.12403 0.0344,-0.0293 0.11133,0.0293 0.14571,0 0.0344,-0.0293 -0.0344,-0.0948 0,-0.12402 0.0687,-0.0584 0.22273,0.0584 0.29142,0 0.0344,-0.0293 -0.0344,-0.0948 0,-0.12403 0.0344,-0.0293 0.11132,0.0293 0.14571,0 0.0344,-0.0293 -0.0344,-0.0948 0,-0.12403 0.0344,-0.0293 0.11132,0.0293 0.14571,0 0.0344,-0.0293 -0.0344,-0.0948 0,-0.12402 0.0344,-0.0293 0.11132,0.0293 0.14571,0 0.0344,-0.0293 -0.0344,-0.0948 0,-0.12403 0.0686,-0.0584 0.22272,0.0584 0.29141,0 0.0344,-0.0293 -0.0344,-0.0948 0,-0.12403 0.0344,-0.0293 0.11132,0.0293 0.14571,0 0.0344,-0.0293 -0.0344,-0.0948 0,-0.12403 0.0344,-0.0293 0.11132,0.0293 0.14571,0 0.0344,-0.0293 -0.0344,-0.0947 0,-0.12402 0.0344,-0.0293 0.11132,0.0293 0.14571,0 0.0344,-0.0293 -0.0344,-0.0948 0,-0.12403 0.0344,-0.0293 0.11132,0.0293 0.14571,0 0.0344,-0.0293 -0.0344,-0.0948 0,-0.12403 0.0344,-0.0293 0.11132,0.0293 0.14571,0 0.0344,-0.0293 -0.0344,-0.0947 0,-0.12403 0.0344,-0.0293 0.11132,0.0293 0.1457,0 0.0344,-0.0293 -0.0344,-0.0947 0,-0.12402 0.0344,-0.0293 0.11133,0.0293 0.14571,0 0.0344,-0.0293 -0.0344,-0.0948 0,-0.12403 0.0344,-0.0293 0.11132,0.0293 0.14571,0 0.0344,-0.0293 -0.0217,-0.087 0,-0.12403 0.0307,-0.0523 0.11505,-0.0717 0.14571,-0.12402 0.0217,-0.037 -0.0344,-0.0948 0,-0.12403 0.0344,-0.0293 0.11132,0.0293 0.14571,0 0.0344,-0.0293 -0.0344,-0.0948 0,-0.12403 0.0344,-0.0293 0.11132,0.0293 0.14571,0 0.0687,-0.0584 -0.0687,-0.18958 0,-0.24805 0.0344,-0.0293 0.11132,0.0293 0.14571,0 0.0344,-0.0293 -0.0344,-0.0948 0,-0.12403 0.0344,-0.0293 0.11132,0.0293 0.1457,0 0.0687,-0.0584 -0.0686,-0.18958 0,-0.24805 0.0344,-0.0293 0.11133,0.0293 0.14571,0 0,-0.33074 -0.0486,0.0414 0.14571,-0.12403 0.0344,-0.0293 -0.0344,-0.0948 0,-0.12403 0.0344,-0.0293 0.11132,0.0293 0.14571,0 0.0687,-0.0584 -0.0687,-0.18958 0,-0.24805 0.0344,-0.0293 0.11132,0.0293 0.14571,0 0,-0.33074 -0.0486,0.0414 0.14571,-0.12403 0.0486,-0.0414 -0.0486,-0.20671 0,-0.24806 0.0344,-0.0293 0.11132,0.0293 0.14571,0 0.0344,-0.0293 -0.0344,-0.0948 0,-0.12402 0.0344,-0.0293 0.11132,0.0293 0.1457,0 0.0687,-0.0584 -0.0686,-0.18959 0,-0.24806 0.0344,-0.0293 0.11133,0.0293 0.14571,0 0.0344,-0.0293 -0.0217,-0.087 0,-0.12402 0.0307,-0.0523 0.11505,-0.0717 0.14571,-0.12403 0.0217,-0.037 -0.0344,-0.0948 0,-0.12403 0.0344,-0.0293 0.11132,0.0293 0.14571,0 0.0344,-0.0293 -0.0344,-0.0948 0,-0.12403 0.0344,-0.0293 0.11132,0.0293 0.14571,0 0.0486,-0.0414 -0.0486,-0.2067 0,-0.24805 0.0344,-0.0293 0.11132,0.0293 0.14571,0 0.0344,-0.0293 -0.0344,-0.0948 0,-0.12403 0.0344,-0.0293 0.11132,0.0293 0.14571,0 0.0344,-0.0293 -0.0344,-0.0947 0,-0.12402 0.0344,-0.0293 0.11132,0.0293 0.1457,0 0.0687,-0.0585 -0.0686,-0.18959 0,-0.24806 0.0344,-0.0293 0.11133,0.0293 0.14571,0 0.0344,-0.0293 -0.0344,-0.0948 0,-0.12403 0.0344,-0.0293 0.11132,0.0293 0.14571,0 0.0344,-0.0293 -0.0344,-0.0948 0,-0.12402 0.0344,-0.0293 0.11132,0.0293 0.14571,0 0.0344,-0.0293 -0.0217,-0.087 0,-0.12403 0.0307,-0.0523 0.11505,-0.0717 0.14571,-0.12403 0.0217,-0.037 -0.0344,-0.0947 0,-0.12403 0.0344,-0.0293 0.11132,0.0293 0.14571,0 0.0344,-0.0293 -0.0344,-0.0948 0,-0.12402 0.0344,-0.0293 0.11132,0.0293 0.14571,0 0.0344,-0.0293 -0.0344,-0.0948 0,-0.12403 0.0344,-0.0293 0.11132,0.0293 0.1457,0 0.0487,-0.0415 -0.0487,-0.20657 0,-0.24805 0.0344,-0.0293 0.11133,0.0293 0.14571,0 0.0344,-0.0293 -0.0344,-0.0948 0,-0.12403 0.0344,-0.0293 0.11132,0.0293 0.14571,0 0.0344,-0.0293 -0.0344,-0.0948 0,-0.12403 0.0344,-0.0293 0.11132,0.0293 0.14571,0 0.0687,-0.0584 -0.0687,-0.18958 0,-0.24805 0.0344,-0.0293 0.11132,0.0293 0.14571,0 0.0344,-0.0293 -0.0344,-0.0948 0,-0.12403 0.0344,-0.0293 0.11132,0.0293 0.14571,0 0.0344,-0.0293 -0.0344,-0.0948 0,-0.12403 0.0344,-0.0293 0.11132,0.0293 0.14571,0 0.0344,-0.0293 -0.0344,-0.0948 0,-0.12402 0.0687,-0.0584 0.22272,0.0584 0.29141,0 0.0344,-0.0293 -0.0344,-0.0948 0,-0.12403 0.0687,-0.0584 0.22273,0.0584 0.29142,0 0.0344,-0.0293 -0.0344,-0.0948 0,-0.12403 0.0687,-0.0584 0.22272,0.0584 0.29142,0 0.0344,-0.0293 -0.0344,-0.0948 0,-0.12403 0.0729,-0.062 0.36427,0.062 0.43712,0 0.0344,-0.0293 -0.0344,-0.0948 0,-0.12402 0.0351,-0.0299 0.54777,0.0299 0.58284,0 0.0344,-0.0293 -0.0344,-0.0948 0,-0.12403 0.0399,-0.0339 0.50379,0.0336 0.58283,0 0.0614,-0.0262 0.0843,-0.0978 0.14571,-0.12403 0.0443,-0.0188 0.37151,0 0.43713,0 0.33999,0 0.67997,0 1.01996,0 0.6314,0 1.2628,0 1.89421,0 0.0486,0 0.0971,0 0.14571,0 0.0486,0 0.11132,-0.0293 0.1457,0 0.0344,0.0293 -0.0344,0.0948 0,0.12403 0.0729,0.062 0.36428,-0.062 0.43713,0 0.0344,0.0293 -0.0344,0.0948 0,0.12403 0.0687,0.0584 0.22272,-0.0584 0.29142,0 0.0344,0.0293 -0.0344,0.0947 0,0.12402 0.0344,0.0293 0.11132,-0.0293 0.14571,0 0.0344,0.0293 -0.0344,0.0948 0,0.12403 0.0686,0.0584 0.20452,-0.037 0.29141,0 0.0614,0.0262 0.0843,0.0978 0.14571,0.12403 0.0435,0.0185 0.10223,-0.0185 0.14571,0 0.0614,0.0262 0.0843,0.0978 0.14571,0.12403 0.0435,0.0185 0.10223,-0.0185 0.14571,0 0.0614,0.0262 0.0843,0.0978 0.14571,0.12402 0.0868,0.037 0.22272,-0.0584 0.29141,0 0.0344,0.0293 -0.0344,0.0948 0,0.12403 0.0687,0.0584 0.20453,-0.037 0.29142,0 0.0614,0.0262 0.0843,0.0978 0.14571,0.12403 0.0435,0.0184 0.11132,-0.0293 0.14571,0 0.0344,0.0293 -0.0344,0.0947 0,0.12402 0.0351,0.0299 0.54777,-0.0299 0.58283,0 0.0344,0.0293 -0.0344,0.0948 0,0.12403 0.0351,0.0299 0.54777,-0.0299 0.58284,0 0.0344,0.0293 -0.0344,0.0948 0,0.12403 0.0451,0.0384 0.68342,-0.0384 0.72854,0 0.0344,0.0293 -0.0344,0.0948 0,0.12403 0.0451,0.0384 0.68342,-0.0384 0.72854,0 0.0344,0.0293 -0.0344,0.0947 0,0.12402 0.0344,0.0293 0.0971,0 0.14571,0 0.38855,0 0.77712,0 1.16567,0 0.0486,0 0.0971,0 0.14571,0 0.0486,0 0.11132,0.0293 0.14571,0 0.0344,-0.0293 -0.0344,-0.0947 0,-0.12402 0.0344,-0.0293 0.11132,0.0293 0.1457,0 0.0344,-0.0293 -0.0344,-0.0948 0,-0.12403 0.0344,-0.0293 0.11133,0.0293 0.14571,0 0.30148,-0.25662 -0.46069,0.01 0.14571,-0.24806 0.0435,-0.0184 0.11132,0.0293 0.14571,0 0.0344,-0.0293 -0.0217,-0.087 0,-0.12402 0.0307,-0.0523 0.0971,-0.0827 0.14571,-0.12403 0.0486,-0.0414 0.0843,-0.0978 0.14571,-0.12403 0.0435,-0.0185 0.11132,0.0293 0.14571,0 0.0768,-0.0654 0.0854,-0.17114 0.1457,-0.24805 0.0381,-0.0486 0.11506,-0.0717 0.14571,-0.12403 0.0217,-0.037 -0.0344,-0.0948 0,-0.12403 0.0344,-0.0293 0.10223,0.0185 0.14571,0 0.32217,-0.13711 0.0452,-0.077 0.14571,-0.24805 0.3032,-0.51617 -0.0105,0.13259 0.29142,-0.12403 0.0485,-0.0413 -0.0485,-0.20679 0,-0.24805 0.0344,-0.0293 0.11132,0.0293 0.1457,0 0.0344,-0.0293 -0.0344,-0.0948 0,-0.12403 0.0344,-0.0293 0.11133,0.0293 0.14571,0 0.0687,-0.0584 -0.0686,-0.18958 0,-0.24805 0.0344,-0.0293 0.11132,0.0293 0.14571,0 0.0344,-0.0293 -0.0344,-0.0948 0,-0.12403 0.0344,-0.0293 0.11132,0.0293 0.14571,0 0.0344,-0.0293 -0.0217,-0.087 0,-0.12403 0.0307,-0.0523 0.11505,-0.0717 0.14571,-0.12403 0.0217,-0.037 -0.0344,-0.0948 0,-0.12402 0.0344,-0.0293 0.11132,0.0293 0.14571,0 0.0344,-0.0293 -0.0217,-0.087 0,-0.12403 0.0614,-0.10459 0.22998,-0.14346 0.29141,-0.24805 0.0217,-0.037 -0.0344,-0.0948 0,-0.12403 0.0344,-0.0293 0.11133,0.0293 0.14571,0 0.0344,-0.0293 -0.0217,-0.087 0,-0.12403 0.0614,-0.10459 0.22999,-0.14346 0.29142,-0.24805 0.0217,-0.037 -0.0217,-0.087 0,-0.12403 0.0307,-0.0523 0.11505,-0.0717 0.14571,-0.12403 0.0217,-0.037 -0.0344,-0.0947 0,-0.12403 0.0344,-0.0293 0.11132,0.0293 0.14571,0 0.0344,-0.0293 -0.0217,-0.087 0,-0.12402 0.0306,-0.0523 0.11505,-0.0717 0.14571,-0.12403 0.0217,-0.037 -0.0344,-0.0948 0,-0.12403 0.0344,-0.0293 0.11132,0.0293 0.1457,0 0.0485,-0.0413 -0.0485,-0.20678 0,-0.24805 0.0344,-0.0293 0.11133,0.0293 0.14571,0 0.0687,-0.0584 -0.0686,-0.18958 0,-0.24806 0.0344,-0.0293 0.11132,0.0293 0.14571,0 0.0687,-0.0584 -0.0687,-0.18958 0,-0.24805 0.0344,-0.0293 0.11132,0.0293 0.14571,0 0.0687,-0.0584 -0.0687,-0.18958 0,-0.24805 0.0344,-0.0293 0.11132,0.0293 0.14571,0 0.0687,-0.0584 -0.0687,-0.18959 0,-0.24806 0.0344,-0.0293 0.11132,0.0293 0.14571,0 0.0687,-0.0584 -0.0687,-0.18958 0,-0.24805 0.0344,-0.0293 0.11132,0.0293 0.14571,0 0.0344,-0.0293 -0.0217,-0.087 0,-0.12403 0.0308,-0.0523 0.11493,-0.0717 0.1457,-0.12403 0.0388,-0.0662 -0.0388,-0.1819 0,-0.24805 0.0308,-0.0523 0.11494,-0.0717 0.14571,-0.12403 0.0217,-0.037 -0.0344,-0.0948 0,-0.12403 0.0344,-0.0293 0.11132,0.0293 0.14571,0 0.0687,-0.0584 -0.0435,-0.17409 0,-0.24805 0.0971,-0.16537 0.19428,-0.0827 0.29142,-0.24806 0.0435,-0.0739 -0.0687,-0.18958 0,-0.24805 0.0344,-0.0293 0.11132,0.0293 0.14571,0 0.0344,-0.0293 -0.0217,-0.087 0,-0.12403 0.48325,-0.41134 -0.0687,0.11694 0.14571,-0.24805 0.0308,-0.0523 0.11493,-0.0717 0.1457,-0.12403 0.0217,-0.037 -0.0217,-0.087 0,-0.12403 0.48326,-0.41134 -0.0686,0.11694 0.14571,-0.24805 0.0308,-0.0523 0.11494,-0.0717 0.14571,-0.12403 0.0217,-0.037 -0.0217,-0.087 0,-0.12403 0.0308,-0.0523 0.11494,-0.0717 0.14571,-0.12402 0.0217,-0.037 -0.0217,-0.087 0,-0.12403 0.0308,-0.0523 0.11494,-0.0717 0.14571,-0.12403 0.0217,-0.037 -0.0217,-0.087 0,-0.12402 0.0308,-0.0523 0.11493,-0.0717 0.14571,-0.12403 0.0217,-0.037 -0.0217,-0.087 0,-0.12403 0.0308,-0.0523 0.0971,-0.0827 0.14571,-0.12403 0.0486,0 0.12399,0.037 0.1457,0 0.0435,-0.0739 -0.0435,-0.17409 0,-0.24805 0.0217,-0.037 0.11133,0.0293 0.14571,0 0.0687,-0.0584 -0.0686,-0.18958 0,-0.24805 0.0344,-0.0293 0.0971,0 0.14571,0 0,-0.0827 -0.0435,-0.1741 0,-0.24806 0.0217,-0.037 0.11132,0.0293 0.14571,0 0.0687,-0.0584 -0.0687,-0.18958 0,-0.24805 0.0344,-0.0293 0.11132,0.0293 0.14571,0 0.0344,-0.0293 -0.0344,-0.0948 0,-0.12403 0.0344,-0.0293 0.11132,0.0293 0.14571,0 0.0687,-0.0584 -0.0687,-0.18958 0,-0.24805 0.0344,-0.0293 0.11132,0.0293 0.14571,0 0.0344,-0.0293 -0.0344,-0.0948 0,-0.12403 0.0344,-0.0293 0.11132,0.0293 0.1457,0 0.0687,-0.0584 -0.0686,-0.18959 0,-0.24806 0.0344,-0.0293 0.11133,0.0293 0.14571,0 0.0344,-0.0293 -0.0217,-0.087 0,-0.12402 0.0308,-0.0523 0.11494,-0.0717 0.14571,-0.12403 0.0217,-0.037 -0.0344,-0.0948 0,-0.12403 0.0344,-0.0293 0.11132,0.0293 0.14571,0 0.0344,-0.0293 -0.0344,-0.0948 0,-0.12403 0.0344,-0.0293 0.11132,0.0293 0.14571,0 0.0344,-0.0293 -0.0344,-0.0948 0,-0.12402 0.0344,-0.0293 0.11132,0.0293 0.14571,0 0.0344,-0.0293 -0.0344,-0.0948 0,-0.12403 0.0344,-0.0293 0.11132,0.0293 0.14571,0 0.0344,-0.0293 -0.0344,-0.0948 0,-0.12403 0.0344,-0.0293 0.11132,0.0293 0.1457,0 0.0344,-0.0293 0,-0.0827 0,-0.12402 0.0486,0 0.10223,0.0184 0.14571,0 0.60641,-0.25809 -0.15577,0.009 0.14571,-0.24806 0.0344,-0.0293 0.0971,0 0.14571,0 0,-0.0414 -0.0217,-0.087 0,-0.12403 0.3032,-0.51617 -0.0105,0.13259 0.29142,-0.12402 0.0344,-0.0293 -0.0344,-0.0948 0,-0.12403 0.0344,-0.0293 0.11132,0.0293 0.14571,0 0.30147,-0.25662 -0.4607,0.01 0.1457,-0.24805 0.0435,-0.0185 0.11133,0.0293 0.14571,0 0.0344,-0.0293 -0.0217,-0.087 0,-0.12403 0.0308,-0.0523 0.11494,-0.0717 0.14571,-0.12403 0.0217,-0.037 -0.0344,-0.0948 0,-0.12403 0.0344,-0.0293 0.11132,0.0293 0.14571,0 0.0344,-0.0293 -0.0344,-0.0948 0,-0.12402 0.0344,-0.0293 0.11132,0.0293 0.14571,0 0.0344,-0.0293 -0.0344,-0.0948 0,-0.12403 0.30148,-0.25662 -0.0118,0.39214 0.29142,-0.12403 0,-0.33073 -0.0486,0.0414 0.1457,-0.12403 0.0344,-0.0293 -0.0344,-0.0947 0,-0.12402 0.0344,-0.0293 0.11133,0.0293 0.14571,0 0.0344,-0.0293 -0.0344,-0.0948 0,-0.12403 0.0687,-0.0584 0.22273,0.0584 0.29142,0 0.0344,-0.0293 -0.0344,-0.0948 0,-0.12403 0.0344,-0.0293 0.11132,0.0293 0.14571,0 0.0344,-0.0293 -0.0344,-0.0947 0,-0.12402 0.0344,-0.0293 0.11132,0.0293 0.14571,0 0.0344,-0.0293 -0.0344,-0.0948 0,-0.12403 0.0687,-0.0584 0.22272,0.0584 0.29141,0 0.0344,-0.0293 -0.0344,-0.0948 0,-0.12403 0.0344,-0.0293 0.11133,0.0293 0.14571,0 0.0344,-0.0293 -0.0344,-0.0948 0,-0.12403 0.0344,-0.0293 0.10223,0.0185 0.14571,0 0.0614,-0.0261 0.0843,-0.0979 0.14571,-0.12402 0.0435,-0.0185 0.11132,0.0293 0.14571,0 0.0344,-0.0293 -0.0344,-0.0948 0,-0.12403 0.0486,-0.0414 0.24284,0.0414 0.29142,0 0.0344,-0.0293 -0.0344,-0.0948 0,-0.12403 0.0686,-0.0584 0.22272,0.0584 0.29141,0 0.0344,-0.0293 -0.0344,-0.0948 0,-0.12402 0.0344,-0.0293 0.10223,0.0185 0.14571,0 0.0614,-0.0261 0.0843,-0.0979 0.14571,-0.12403 0.0868,-0.037 0.20453,0.037 0.29142,0 0.0614,-0.0261 0.0843,-0.0979 0.14571,-0.12403 0.0435,-0.0184 0.11132,0.0293 0.1457,0 0.0344,-0.0293 -0.0344,-0.0948 0,-0.12403 0.0687,-0.0584 0.22273,0.0584 0.29142,0 0.0344,-0.0293 -0.0344,-0.0947 0,-0.12402 0.0344,-0.0293 0.11132,0.0293 0.14571,0 0.19428,-0.16538 -0.24284,-0.12403 0.14571,-0.12403 0.0486,0 0.0971,0 0.14571,0 0.0486,0 0.11132,0.0293 0.14571,0 0.0344,-0.0293 -0.0344,-0.0948 0,-0.12403 0.0485,-0.0413 0.24289,0.0413 0.29141,0 0.0344,-0.0293 -0.0344,-0.0948 0,-0.12403 0.0344,-0.0293 0.0971,0 0.14571,0 0.0486,0 0.11132,-0.0293 0.14571,0 0.0344,0.0293 -0.0344,0.0948 0,0.12403 0.0344,0.0293 0.11132,-0.0293 0.14571,0 0.0344,0.0293 -0.0344,0.0948 0,0.12403 0.0344,0.0293 0.10223,-0.0185 0.14571,0 0.0614,0.0261 0.0971,0.0827 0.14571,0.12403 0.15858,0.13499 0.41992,0.40365 0.58283,0.49611 0.0405,0.0229 0.0997,-0.0131 0.14571,0 0.20607,0.0584 0.3721,0.20321 0.58283,0.24805 0.0942,0.02 0.19428,0 0.29142,0 0.33999,0 0.67997,0 1.01996,0 0.29142,0 0.58283,0 0.87425,0 0.0971,0 0.19926,0.0261 0.29142,0 0.0652,-0.0185 0.0806,-0.10554 0.14571,-0.12403 0.0922,-0.0261 0.19926,0.0261 0.29141,0 0.0652,-0.0185 0.0806,-0.10554 0.14571,-0.12402 0.0922,-0.0261 0.19926,0.0261 0.29142,0 0.0652,-0.0185 0.0886,-0.0916 0.14571,-0.12403 0.0903,-0.0513 0.18838,-0.0948 0.29142,-0.12403 0.046,-0.0131 0.0997,0.0131 0.1457,0 0.10305,-0.0293 0.18606,-0.1016 0.29142,-0.12403 0.0942,-0.02 0.19926,0.0261 0.29142,0 0.0652,-0.0184 0.0843,-0.0979 0.14571,-0.12402 0.0435,-0.0185 0.0997,0.0131 0.14571,0 0.10304,-0.0293 0.18838,-0.0948 0.29141,-0.12403 0.046,-0.0131 0.10223,0.0184 0.14571,0 0.60641,-0.25809 -0.15577,0.009 0.14571,-0.24806 0.0687,-0.0584 0.20453,0.037 0.29142,0 0.0614,-0.0261 0.0843,-0.0979 0.14571,-0.12402 0.0435,-0.0185 0.11132,0.0293 0.1457,0 0.0344,-0.0293 -0.0344,-0.0948 0,-0.12403 0.0486,-0.0414 0.24285,0.0414 0.29142,0 0.0344,-0.0293 -0.0344,-0.0948 0,-0.12403 0.0344,-0.0293 0.11132,0.0293 0.14571,0 0.0344,-0.0293 -0.0344,-0.0948 0,-0.12402 0.0687,-0.0584 0.20453,0.037 0.29142,0 0.48325,-0.41135 -0.13738,0.0584 0.29141,-0.12403 0.60641,-0.25809 -0.15576,0.009 0.14571,-0.24806 0.0687,-0.0584 0.20453,0.037 0.29142,0 0.6064,-0.25808 -0.15577,0.009 0.14571,-0.24805 0.0344,-0.0293 0.10223,0.0185 0.14571,0 0.0614,-0.0261 0.0843,-0.0979 0.14571,-0.12403 0.0435,-0.0184 0.11132,0.0293 0.1457,0 0.0344,-0.0293 -0.0217,-0.087 0,-0.12402 0.0308,-0.0523 0.11494,-0.0717 0.14571,-0.12403 0.0217,-0.037 -0.0344,-0.0948 0,-0.12403 0.0344,-0.0293 0.11132,0.0293 0.14571,0 0,-0.33074 -0.0486,0.0414 0.14571,-0.12403 0.0687,-0.0584 -0.0687,-0.18958 0,-0.24805 0.0344,-0.0293 0.11132,0.0293 0.14571,0 0.0344,-0.0293 -0.0217,-0.087 0,-0.12403 0.0308,-0.0523 0.11493,-0.0717 0.14571,-0.12403 0.0217,-0.037 0,-0.0827 0,-0.12402 0.0486,-0.0414 0.11493,-0.0717 0.14571,-0.12403 0.0435,-0.0739 -0.0687,-0.18958 0,-0.24805 0.0344,-0.0293 0.11132,0.0293 0.1457,0 0.0344,-0.0293 -0.0217,-0.087 0,-0.12403 0.48325,-0.41135 -0.0686,0.11693 0.14571,-0.24806 0.0308,-0.0523 0.12399,-0.0686 0.14571,-0.12402 0.0308,-0.0785 -0.0308,-0.16961 0,-0.24806 0.0217,-0.0555 0.0971,-0.0827 0.14571,-0.12402 0.16671,-0.14191 0.2032,-0.14682 0.29142,-0.37209 0.14457,-0.3692 -0.34502,0.25449 0.1457,-0.37208 0.0381,-0.0486 0.11494,-0.0717 0.14571,-0.12403 0.0217,-0.037 -0.0154,-0.0848 0,-0.12402 0.0344,-0.0877 0.11132,-0.16035 0.14571,-0.24806 0.0154,-0.0392 -0.0217,-0.087 0,-0.12402 0.48325,-0.41135 -0.0687,0.11693 0.14571,-0.24806 0.0874,-0.14883 0.3497,-0.22325 0.43713,-0.37208 0.0217,-0.037 -0.0217,-0.087 0,-0.12403 0.0614,-0.10459 0.22998,-0.14346 0.29141,-0.24805 0.0217,-0.037 -0.0217,-0.087 0,-0.12403 0.0874,-0.14883 0.3497,-0.22325 0.43713,-0.37208 0.0217,-0.037 -0.0217,-0.087 0,-0.12403 0.0389,-0.0663 0.36041,-0.30678 0.43712,-0.37208 0.0767,-0.0653 0.35931,-0.33896 0.43713,-0.37208 0.0435,-0.0185 0.10223,0.0184 0.14571,0 0.17485,-0.0744 0.26227,-0.29767 0.43712,-0.37208 0.0435,-0.0185 0.11133,0.0293 0.14571,0 0.0344,-0.0293 -0.0344,-0.0948 0,-0.12403 0.0344,-0.0293 0.11132,0.0293 0.14571,0 0.0344,-0.0293 -0.0344,-0.0948 0,-0.12403 0.0687,-0.0584 0.22273,0.0584 0.29142,0 0.0344,-0.0293 -0.0344,-0.0947 0,-0.12402 0.0687,-0.0584 0.20453,0.037 0.29142,0 0.12287,-0.0523 0.16854,-0.19577 0.29141,-0.24806 0.0869,-0.037 0.22273,0.0584 0.29142,0 0.0344,-0.0293 -0.0344,-0.0948 0,-0.12403 0.0687,-0.0584 0.20453,0.037 0.29142,0 0.0614,-0.0261 0.0843,-0.0979 0.14571,-0.12402 0.0868,-0.037 0.22272,0.0584 0.29141,0 0.0344,-0.0293 -0.0344,-0.0948 0,-0.12403 0.0687,-0.0584 0.22273,0.0584 0.29142,0 0.0344,-0.0293 -0.0344,-0.0948 0,-0.12403 0.0351,-0.0299 0.54777,0.0299 0.58283,0 0.0344,-0.0293 -0.0344,-0.0947 0,-0.12403 0.0729,-0.062 0.36428,0.062 0.43713,0 0.0344,-0.0293 -0.0344,-0.0947 0,-0.12402 0.0729,-0.062 0.36427,0.062 0.43713,0 0.0344,-0.0293 -0.0344,-0.0948 0,-0.12403 0.0729,-0.062 0.36427,0.062 0.43712,0 0.0344,-0.0293 -0.0344,-0.0948 0,-0.12403 0.0687,-0.0584 0.22273,0.0584 0.29142,0 0.0344,-0.0293 -0.0344,-0.0948 0,-0.12402 0.0728,-0.062 0.36427,0.062 0.43712,0 0.0344,-0.0293 -0.0344,-0.0948 0,-0.12403 0.0344,-0.0293 0.10223,0.0185 0.14571,0 0.0614,-0.0261 0.0843,-0.0979 0.14571,-0.12403 0.0868,-0.037 0.22273,0.0584 0.29142,0 0.0344,-0.0293 -0.0344,-0.0948 0,-0.12403 0.0485,-0.0413 0.24289,0.0413 0.29142,0 0.0344,-0.0293 -0.0344,-0.0947 0,-0.12402 0.0344,-0.0293 0.11132,0.0293 0.1457,0 0.0344,-0.0293 -0.0344,-0.0948 0,-0.12403 0.0687,-0.0584 0.22273,0.0584 0.29142,0 0.0344,-0.0293 -0.0344,-0.0948 0,-0.12403 0.0344,-0.0293 0.0971,0 0.14571,0 0,-0.0414 -0.0344,-0.0947 0,-0.12402 0.0344,-0.0293 0.11132,0.0293 0.14571,0 0.0344,-0.0293 -0.0344,-0.0948 0,-0.12403 0.0344,-0.0293 0.11132,0.0293 0.14571,0 0.0344,-0.0293 -0.0344,-0.0948 0,-0.12403 0.0344,-0.0293 0.11132,0.0293 0.14571,0 0.0344,-0.0293 -0.0344,-0.0948 0,-0.12403 0.0344,-0.0293 0.11132,0.0293 0.1457,0 0.0344,-0.0293 -0.0344,-0.0947 0,-0.12402 0.0687,-0.0584 0.22273,0.0584 0.29142,0 0.0344,-0.0293 -0.0344,-0.0948 0,-0.12403 0.0344,-0.0293 0.11132,0.0293 0.14571,0 0.0344,-0.0293 -0.0344,-0.0948 0,-0.12403 0.0344,-0.0293 0.0971,0 0.14571,0 0,-0.0414 -0.0344,-0.0948 0,-0.12403 0.0344,-0.0293 0.11132,0.0293 0.14571,0 0.0344,-0.0293 -0.0344,-0.0948 0,-0.12402 0.0344,-0.0293 0.11132,0.0293 0.14571,0 0.0344,-0.0293 -0.0344,-0.0948 0,-0.12403 0.0344,-0.0293 0.11132,0.0293 0.1457,0 0.0344,-0.0293 -0.0344,-0.0948 0,-0.12403 0.0344,-0.0293 0.0971,0 0.14571,0 0,-0.0414 -0.0344,-0.0947 0,-0.12402 0.0344,-0.0293 0.11132,0.0293 0.14571,0 0.0344,-0.0293 -0.0344,-0.0948 0,-0.12403 0.0344,-0.0293 0.11132,0.0293 0.14571,0 0.0344,-0.0293 -0.0344,-0.0948 0,-0.12403 0.0344,-0.0293 0.11132,0.0293 0.14571,0 0.0344,-0.0293 -0.0344,-0.0948 0,-0.12403 0.0687,-0.0584 0.22272,0.0584 0.29142,0 0.0344,-0.0293 -0.0344,-0.0947 0,-0.12402 0.0344,-0.0293 0.11132,0.0293 0.1457,0 0.0344,-0.0293 -0.0344,-0.0948 0,-0.12403 0.0344,-0.0293 0.11133,0.0293 0.14571,0 0.0344,-0.0293 -0.0344,-0.0948 0,-0.12403 0.0344,-0.0293 0.11132,0.0293 0.14571,0 0.0344,-0.0293 -0.0344,-0.0948 0,-0.12402 0.0344,-0.0293 0.11132,0.0293 0.14571,0 0.0344,-0.0293 -0.0344,-0.0948 0,-0.12403 0.0344,-0.0293 0.11132,0.0293 0.14571,0 0.0344,-0.0293 -0.0344,-0.0948 0,-0.12403 0.0344,-0.0293 0.11132,0.0293 0.14571,0 0.0344,-0.0293 -0.0344,-0.0948 0,-0.12403 0.0344,-0.0293 0.11132,0.0293 0.14571,0 0.0344,-0.0293 -0.0344,-0.0948 0,-0.12402 0.0485,-0.0413 0.24289,0.0413 0.29141,0 0.0485,-0.0413 -0.0485,-0.20679 0,-0.24806 0.0344,-0.0293 0.0971,0 0.14571,0 0,-0.0414 -0.0344,-0.0947 0,-0.12403 0.0344,-0.0293 0.11132,0.0293 0.14571,0 0.0344,-0.0293 -0.0344,-0.0947 0,-0.12402 0.0344,-0.0293 0.10223,0.0184 0.14571,0 0.0614,-0.0261 0.0843,-0.0979 0.14571,-0.12403 0.0435,-0.0184 0.11132,0.0293 0.14571,0 0.0344,-0.0293 -0.0344,-0.0948 0,-0.12403 0.0344,-0.0293 0.11132,0.0293 0.1457,0 0.0344,-0.0293 -0.0344,-0.0947 0,-0.12402 0.0344,-0.0293 0.11133,0.0293 0.14571,0 0.0344,-0.0293 -0.0344,-0.0948 0,-0.12403 0.0344,-0.0293 0.11132,0.0293 0.14571,0 0.0344,-0.0293 -0.0344,-0.0948 0,-0.12403 0.0687,-0.0584 0.22273,0.0584 0.29142,0 0.0344,-0.0293 -0.0344,-0.0948 0,-0.12403 0.0344,-0.0293 0.0971,0 0.14571,0 0,-0.0414 -0.0344,-0.0947 0,-0.12402 0.0344,-0.0293 0.11132,0.0293 0.14571,0 0.0344,-0.0293 -0.0344,-0.0948 0,-0.12403 0.006,-0.005 0.52933,0 0.58283,0 0.33999,0 0.67997,0 1.01996,0 0.0486,0 0.0971,0 0.14571,0 0.0486,0 0.14571,-0.0414 0.14571,0 0,0.0414 -0.19429,0 -0.14571,0 0.0971,0 0.20453,-0.037 0.29142,0 0.38855,0.16537 -0.43713,0.12403 0.1457,0.12403"
       id="path3811"
       style="fill:none;stroke:#808080;stroke-width:4.30180788;stroke-linecap:square;stroke-linejoin:round;stroke-miterlimit:4;stroke-opacity:1;stroke-dasharray:none" />
    <path
       d="m 465.82514,281.42626 c 0,62.04862 0,62.04862 0,62.04862"
       id="path3769"
       style="fill:none;stroke:#000000;stroke-width:2;stroke-linecap:butt;stroke-linejoin:miter;stroke-miterlimit:4;stroke-opacity:1;stroke-dasharray:none" />
  </g>
</svg>
