<?xml version="1.0" encoding="UTF-8" standalone="no"?>
<!-- Created with Inkscape (http://www.inkscape.org/) -->

<svg
   xmlns:dc="http://purl.org/dc/elements/1.1/"
   xmlns:cc="http://creativecommons.org/ns#"
   xmlns:rdf="http://www.w3.org/1999/02/22-rdf-syntax-ns#"
   xmlns:svg="http://www.w3.org/2000/svg"
   xmlns="http://www.w3.org/2000/svg"
   version="1.1"
   width="148"
   height="82.088318"
   id="svg2882">
  <defs
     id="defs2884" />
  <metadata
     id="metadata2887">
    <rdf:RDF>
      <cc:Work
         rdf:about="">
        <dc:format>image/svg+xml</dc:format>
        <dc:type
           rdf:resource="http://purl.org/dc/dcmitype/StillImage" />
        <dc:title></dc:title>
      </cc:Work>
    </rdf:RDF>
  </metadata>
  <g
     transform="translate(-1360.8998,-759.88945)"
     id="layer1">
    <rect
       width="147.356"
       height="81.696091"
       x="0.37880722"
       y="0.26596156"
       transform="translate(1360.8998,759.88945)"
       id="rect2909"
       style="fill:#ffffff;fill-opacity:1;stroke:#f2f2f2;stroke-width:1;stroke-linecap:square;stroke-linejoin:miter;stroke-miterlimit:4;stroke-dasharray:none" />
    <path
       d="m 1419.7327,839.48448 0,-77.08832"
       id="path5303"
       style="fill:none;stroke:#000000;stroke-width:5;stroke-linecap:butt;stroke-linejoin:miter;stroke-miterlimit:4;stroke-opacity:1;stroke-dasharray:none" />
    <path
       d="m 72.225908,46.083107 a 22.602163,22.602163 0 1 1 -45.204326,0 22.602163,22.602163 0 1 1 45.204326,0 z"
       transform="translate(1370.1887,754.12581)"
       id="path3428"
       style="fill:#ffffff;stroke:#000000;stroke-width:5;stroke-miterlimit:4;stroke-dasharray:none" />
    <path
       d="m 1396.072,771.72223 47.4107,56.96429"
       id="path5299"
       style="fill:none;stroke:#000000;stroke-width:5;stroke-linecap:butt;stroke-linejoin:miter;stroke-miterlimit:4;stroke-opacity:1;stroke-dasharray:none" />
    <path
       d="m 1443.4827,771.72223 -47.4107,56.96429"
       id="path5301"
       style="fill:none;stroke:#000000;stroke-width:5;stroke-linecap:butt;stroke-linejoin:miter;stroke-miterlimit:4;stroke-opacity:1;stroke-dasharray:none" />
    <path
       d="m 1475.9168,762.28515 -17,0 3.625,3.625 -5.125,5.25 4.5,4.375"
       id="path3907"
       style="fill:none;stroke:#000000;stroke-width:3;stroke-linecap:butt;stroke-linejoin:miter;stroke-miterlimit:4;stroke-opacity:1;stroke-dasharray:none" />
    <path
       d="m 1474.6043,760.97265 0,17 -3.625,-3.625 -5.125,5 -4.5,-4.375"
       id="path3907-7"
       style="fill:none;stroke:#000000;stroke-width:3;stroke-linecap:butt;stroke-linejoin:miter;stroke-miterlimit:4;stroke-opacity:1;stroke-dasharray:none" />
    <path
       d="m 1454.2918,774.66015 8.625,8.25 -3.375,3.5 -8.75,-8.25 3.5,-3.5 z"
       id="path3975"
       style="fill:none;stroke:#000000;stroke-width:3;stroke-linecap:butt;stroke-linejoin:miter;stroke-miterlimit:4;stroke-opacity:1;stroke-dasharray:none" />
    <path
       d="m 1439.2317,800.23652 a 19.465752,19.339486 0 0 1 -38.9315,0 19.465752,19.339486 0 1 1 38.9315,0 z"
       id="path2990"
       style="fill:#ffffff;fill-opacity:1;stroke:#ffffff;stroke-width:1.71697962" />
  </g>
</svg>
