<?xml version="1.0" encoding="UTF-8" standalone="no"?>
<!-- Created with Inkscape (http://www.inkscape.org/) -->

<svg
   xmlns:dc="http://purl.org/dc/elements/1.1/"
   xmlns:cc="http://creativecommons.org/ns#"
   xmlns:rdf="http://www.w3.org/1999/02/22-rdf-syntax-ns#"
   xmlns:svg="http://www.w3.org/2000/svg"
   xmlns="http://www.w3.org/2000/svg"
   version="1.1"
   width="148"
   height="82.088318"
   id="svg2882">
  <defs
     id="defs2884" />
  <metadata
     id="metadata2887">
    <rdf:RDF>
      <cc:Work
         rdf:about="">
        <dc:format>image/svg+xml</dc:format>
        <dc:type
           rdf:resource="http://purl.org/dc/dcmitype/StillImage" />
        <dc:title></dc:title>
      </cc:Work>
    </rdf:RDF>
  </metadata>
  <g
     transform="translate(-1360.8998,-759.88945)"
     id="layer1">
    <rect
       width="147.356"
       height="81.696091"
       x="0.37880722"
       y="0.26596156"
       transform="translate(1360.8998,759.88945)"
       id="rect2909"
       style="fill:#ffffff;fill-opacity:1;stroke:#f2f2f2;stroke-width:1;stroke-linecap:square;stroke-linejoin:miter;stroke-miterlimit:4;stroke-dasharray:none" />
    <path
       d="m 1435.7327,839.48448 0,-77.08832"
       id="path5303"
       style="fill:none;stroke:#000000;stroke-width:5;stroke-linecap:butt;stroke-linejoin:miter;stroke-miterlimit:4;stroke-opacity:1;stroke-dasharray:none" />
    <path
       d="m 72.225908,46.083107 a 22.602163,22.602163 0 1 1 -45.204326,0 22.602163,22.602163 0 1 1 45.204326,0 z"
       transform="translate(1386.1887,754.12581)"
       id="path3428"
       style="fill:#ffffff;stroke:#000000;stroke-width:5;stroke-miterlimit:4;stroke-dasharray:none" />
    <path
       d="m 1412.072,771.72223 47.4107,56.96429"
       id="path5299"
       style="fill:none;stroke:#000000;stroke-width:5;stroke-linecap:butt;stroke-linejoin:miter;stroke-miterlimit:4;stroke-opacity:1;stroke-dasharray:none" />
    <path
       d="m 1459.4827,771.72223 -47.4107,56.96429"
       id="path5301"
       style="fill:none;stroke:#000000;stroke-width:5;stroke-linecap:butt;stroke-linejoin:miter;stroke-miterlimit:4;stroke-opacity:1;stroke-dasharray:none" />
    <path
       d="m 31.188459,31.643826 a 11.174812,11.427351 0 1 1 -22.3496242,0 11.174812,11.427351 0 1 1 22.3496242,0 z"
       transform="matrix(1.741931,0,0,1.6923857,1401.0413,746.75543)"
       id="path2990"
       style="fill:#ffffff;fill-opacity:1;stroke:#ffffff" />
  </g>
</svg>
