<?xml version="1.0" encoding="UTF-8" standalone="no"?>
<!-- Created with Inkscape (http://www.inkscape.org/) -->

<svg
   xmlns:dc="http://purl.org/dc/elements/1.1/"
   xmlns:cc="http://creativecommons.org/ns#"
   xmlns:rdf="http://www.w3.org/1999/02/22-rdf-syntax-ns#"
   xmlns:svg="http://www.w3.org/2000/svg"
   xmlns="http://www.w3.org/2000/svg"
   xmlns:sodipodi="http://sodipodi.sourceforge.net/DTD/sodipodi-0.dtd"
   xmlns:inkscape="http://www.inkscape.org/namespaces/inkscape"
   version="1.1"
   width="91"
   height="51"
   id="svg5932"
   inkscape:version="0.47 r22583"
   sodipodi:docname="Animat01_91x51.svg">
  <metadata
     id="metadata8">
    <rdf:RDF>
      <cc:Work
         rdf:about="">
        <dc:format>image/svg+xml</dc:format>
        <dc:type
           rdf:resource="http://purl.org/dc/dcmitype/StillImage" />
        <dc:title></dc:title>
      </cc:Work>
    </rdf:RDF>
  </metadata>
  <sodipodi:namedview
     pagecolor="#ffffff"
     bordercolor="#666666"
     borderopacity="1"
     objecttolerance="10"
     gridtolerance="10"
     guidetolerance="10"
     inkscape:pageopacity="0"
     inkscape:pageshadow="2"
     inkscape:window-width="1376"
     inkscape:window-height="974"
     id="namedview6"
     showgrid="false"
     inkscape:zoom="11.313708"
     inkscape:cx="41.342425"
     inkscape:cy="22.957921"
     inkscape:window-x="0"
     inkscape:window-y="25"
     inkscape:window-maximized="0"
     inkscape:current-layer="svg5932" />
  <defs
     id="defs5934">
    <inkscape:perspective
       sodipodi:type="inkscape:persp3d"
       inkscape:vp_x="0 : 25.5 : 1"
       inkscape:vp_y="0 : 1000 : 0"
       inkscape:vp_z="91 : 25.5 : 1"
       inkscape:persp3d-origin="45.5 : 17 : 1"
       id="perspective12" />
    <inkscape:perspective
       id="perspective2844"
       inkscape:persp3d-origin="0.5 : 0.33333333 : 1"
       inkscape:vp_z="1 : 0.5 : 1"
       inkscape:vp_y="0 : 1000 : 0"
       inkscape:vp_x="0 : 0.5 : 1"
       sodipodi:type="inkscape:persp3d" />
  </defs>
  <g
     transform="translate(0,-1001.3622)"
     id="layer1"
     style="stroke:#e6e6e6">
    <rect
       width="90.89286"
       height="50.625"
       x="0.089285716"
       y="0.19642843"
       transform="translate(0,1001.3622)"
       id="rect5942"
       style="fill:none;stroke:#e6e6e6;stroke-width:1;stroke-linecap:square;stroke-linejoin:miter;stroke-miterlimit:4;stroke-opacity:1;stroke-dasharray:none" />
  </g>
  <path
     style="fill:none;stroke:#000000;stroke-width:1.50759101;stroke-linecap:butt;stroke-linejoin:miter;stroke-miterlimit:4;stroke-opacity:1;stroke-dasharray:none"
     d="m 14.409424,47.825715 c 62.252514,-0.112722 62.252514,0 62.252514,0"
     id="path3771" />
  <path
     style="fill:none;stroke:#000000;stroke-width:1.49892831;stroke-linecap:butt;stroke-linejoin:miter;stroke-miterlimit:4;stroke-opacity:1;stroke-dasharray:none"
     d="m 16.663942,3.575807 -0.996548,3.3025529 1.993116,0.033115 -0.996568,-3.33558 z"
     id="path3779"
     sodipodi:nodetypes="cccc" />
  <path
     style="fill:none;stroke:#000000;stroke-width:1.49892831;stroke-linecap:butt;stroke-linejoin:miter;stroke-miterlimit:4;stroke-opacity:1;stroke-dasharray:none"
     d="m 77.430253,47.796986 -3.321854,-0.990746 -0.03329,1.981558 3.355063,-0.990812 z"
     id="path3779-8"
     sodipodi:nodetypes="cccc" />
  <path
     style="fill:none;stroke:#808080;stroke-width:3.224051;stroke-linecap:square;stroke-linejoin:round;stroke-miterlimit:4;stroke-opacity:1;stroke-dasharray:none"
     d="m 17.607879,41.399802 c 0.182586,0 0.365091,0 0.547617,0 0.03656,0 0.08374,-0.02193 0.10947,0 0.02573,0.02193 -0.02573,0.07084 0,0.09276 0.02573,0.02193 0.07291,0 0.109471,0 0.03656,0 0.07291,0 0.10947,0 0.25556,0 0.5111,0 0.76664,0 0.03656,0 0.08374,-0.02193 0.10947,0 0.02594,0.02193 -0.02573,0.07084 0,0.09276 0.0041,0.0044 0.302024,0 0.328575,0 0.547597,0 1.095214,0 1.642831,0 0.25554,0 0.511101,0 0.766661,0 0.03656,0 0.08353,0.02193 0.10947,0 0.02594,-0.02193 -0.02594,-0.07084 0,-0.09276 0.02635,-0.02237 0.411739,0.02237 0.438086,0 0.02594,-0.02193 -0.02573,-0.07084 0,-0.09276 0.02635,-0.02237 0.411739,0.02237 0.438086,0 0.02573,-0.02193 -0.02573,-0.07084 0,-0.09277 0.02635,-0.02237 0.411739,0.02237 0.438085,0 0.02594,-0.02193 -0.02573,-0.07083 0,-0.09276 0.05474,-0.04627 0.273819,0.04627 0.328575,0 0.02594,-0.02193 -0.02573,-0.07084 0,-0.09276 0.05167,-0.04364 0.153789,0.02763 0.219043,0 0.04616,-0.01974 0.06331,-0.07303 0.10947,-0.09276 0.0435,-0.01755 0.30617,0.01974 0.328554,0 0.02594,-0.02193 -0.02573,-0.07084 0,-0.09277 0.05167,-0.04364 0.167474,0.04364 0.219043,0 0.02594,-0.02193 -0.02573,-0.07083 0,-0.09276 0.05473,-0.04627 0.273799,0.04627 0.328575,0 0.02573,-0.02193 -0.02594,-0.07083 0,-0.09276 0.02573,-0.02193 0.08353,0.02193 0.10947,0 0.02594,-0.02193 -0.02594,-0.07083 0,-0.09276 0.05474,-0.04627 0.273819,0.04627 0.328574,0 0.02594,-0.02193 -0.02573,-0.07083 0,-0.09277 0.05167,-0.04364 0.167474,0.04364 0.219043,0 0.02594,-0.02193 -0.02573,-0.07084 0,-0.09276 0.03635,-0.03092 0.182587,0.03092 0.219043,0 0.02594,-0.02193 -0.02594,-0.07084 0,-0.09276 0.02594,-0.02193 0.08374,0.02193 0.109471,0 0.02573,-0.02193 -0.02594,-0.07084 0,-0.09276 0.05167,-0.04364 0.167473,0.04364 0.219042,0 0.02573,-0.02193 -0.02594,-0.07084 0,-0.09277 0.02573,-0.02193 0.08374,0.02193 0.109471,0 0.02594,-0.02193 -0.02573,-0.07084 0,-0.09276 0.02594,-0.02193 0.08374,0.02193 0.10947,0 0.02594,-0.02193 -0.02594,-0.07084 0,-0.09276 0.02594,-0.02193 0.08374,0.02193 0.109471,0 0.02573,-0.02193 -0.02594,-0.07084 0,-0.09276 0.05147,-0.04364 0.167473,0.04364 0.219022,0 0.02573,-0.02193 -0.02573,-0.07084 0,-0.09277 0.02573,-0.02193 0.08353,0.02193 0.10947,0 0.02573,-0.02193 -0.02594,-0.07083 0,-0.09276 0.02573,-0.02193 0.08353,0.02193 0.109471,0 0.02573,-0.02193 -0.02594,-0.07083 0,-0.09276 0.02573,-0.02193 0.08353,0.02193 0.10947,0 0.02594,-0.02193 -0.02573,-0.07083 0,-0.09276 0.02594,-0.02193 0.08374,0.02193 0.109471,0 0.02594,-0.02193 -0.02573,-0.07083 0,-0.09277 0.02594,-0.02193 0.08374,0.02193 0.10947,0 0.02594,-0.02193 -0.02573,-0.07084 0,-0.09276 0.02594,-0.02193 0.08374,0.02193 0.10947,0 0.02594,-0.02193 -0.02573,-0.07084 0,-0.09276 0.02594,-0.02193 0.08374,0.02193 0.109471,0 0.02594,-0.02193 -0.02573,-0.07084 0,-0.09277 0.02594,-0.02193 0.08374,0.02193 0.10947,0 0.02573,-0.02193 -0.01634,-0.06513 0,-0.09276 0.02308,-0.03904 0.08639,-0.05373 0.10947,-0.09276 0.01634,-0.02763 -0.02594,-0.07083 0,-0.09276 0.02594,-0.02193 0.08374,0.02193 0.109471,0 0.02573,-0.02193 -0.02594,-0.07083 0,-0.09277 0.02573,-0.02193 0.08374,0.02193 0.10947,0 0.05167,-0.04364 -0.05167,-0.141669 0,-0.185311 0.02573,-0.02193 0.08353,0.02193 0.109471,0 0.02594,-0.02193 -0.02594,-0.07084 0,-0.09276 0.02594,-0.02193 0.08353,0.02193 0.10947,0 0.05167,-0.04364 -0.05147,-0.14167 0,-0.185311 0.02594,-0.02193 0.08374,0.02193 0.10947,0 0,-0.247155 -0.03656,0.03092 0.109471,-0.09277 0.02594,-0.02193 -0.02573,-0.07083 0,-0.09276 0.02594,-0.02193 0.08374,0.02193 0.10947,0 0.05167,-0.04364 -0.05167,-0.14167 0,-0.185311 0.02573,-0.02193 0.08374,0.02193 0.10947,0 0,-0.247155 -0.03656,0.03092 0.109471,-0.09276 0.03656,-0.03092 -0.03656,-0.15439 0,-0.185311 0.02573,-0.02193 0.08353,0.02193 0.10947,0 0.02594,-0.02193 -0.02573,-0.07084 0,-0.09277 0.02594,-0.02193 0.08374,0.02193 0.109471,0 0.05167,-0.04364 -0.05147,-0.14167 0,-0.185311 0.02573,-0.02193 0.08374,0.02193 0.10947,0 0.02594,-0.02193 -0.01634,-0.06513 0,-0.09276 0.02308,-0.03904 0.08639,-0.05351 0.10947,-0.09276 0.01634,-0.02763 -0.02573,-0.07083 0,-0.09277 0.02594,-0.02193 0.08374,0.02193 0.109471,0 0.02573,-0.02193 -0.02594,-0.07084 0,-0.09276 0.02573,-0.02193 0.08374,0.02193 0.10947,0 0.03656,-0.03092 -0.03656,-0.154389 0,-0.185311 0.02594,-0.02193 0.08374,0.02193 0.10947,0 0.02573,-0.02193 -0.02573,-0.07084 0,-0.09276 0.02573,-0.02193 0.08374,0.02193 0.109471,0 0.02594,-0.02193 -0.02573,-0.07084 0,-0.09277 0.02594,-0.02193 0.08374,0.02193 0.10947,0 0.05167,-0.04364 -0.05167,-0.14167 0,-0.185311 0.02573,-0.02193 0.08374,0.02193 0.109471,0 0.02573,-0.02193 -0.02573,-0.07083 0,-0.09276 0.02573,-0.02193 0.08353,0.02193 0.10947,0 0.02573,-0.02193 -0.02594,-0.07083 0,-0.09276 0.02573,-0.02193 0.08353,0.02193 0.10947,0 0.02594,-0.02193 -0.01634,-0.06513 0,-0.09277 0.02308,-0.03904 0.08639,-0.05351 0.109471,-0.09276 0.01634,-0.02763 -0.02594,-0.07084 0,-0.09276 0.02594,-0.02193 0.08374,0.02193 0.10947,0 0.02573,-0.02193 -0.02594,-0.07084 0,-0.09277 0.02573,-0.02193 0.08374,0.02193 0.10947,0 0.02594,-0.02193 -0.02573,-0.07083 0,-0.09276 0.02594,-0.02193 0.08374,0.02193 0.109471,0 0.03656,-0.03092 -0.03656,-0.154389 0,-0.185311 0.02573,-0.02193 0.08374,0.02193 0.10947,0 0.02573,-0.02193 -0.02573,-0.07083 0,-0.09276 0.02573,-0.02193 0.08374,0.02193 0.109471,0 0.02594,-0.02193 -0.02573,-0.07083 0,-0.09277 0.02594,-0.02193 0.08374,0.02193 0.10947,0 0.05167,-0.04364 -0.05167,-0.141669 0,-0.185311 0.02594,-0.02193 0.08374,0.02193 0.10947,0 0.02573,-0.02193 -0.02594,-0.07084 0,-0.09276 0.02573,-0.02193 0.08374,0.02193 0.109471,0 0.02594,-0.02193 -0.02594,-0.07084 0,-0.09276 0.02594,-0.02193 0.08374,0.02193 0.10947,0 0.02573,-0.02193 -0.02594,-0.07084 0,-0.09277 0.05167,-0.04364 0.167473,0.04364 0.219043,0 0.02573,-0.02193 -0.02594,-0.07083 0,-0.09276 0.05167,-0.04364 0.167473,0.04364 0.219043,0 0.02573,-0.02193 -0.02594,-0.07084 0,-0.09276 0.05167,-0.04364 0.167473,0.04364 0.219043,0 0.02573,-0.02193 -0.02594,-0.07084 0,-0.09276 0.05474,-0.04627 0.273798,0.04627 0.328574,0 0.02573,-0.02193 -0.02594,-0.07084 0,-0.09277 0.02635,-0.02237 0.411719,0.02237 0.438086,0 0.02594,-0.02193 -0.02573,-0.07083 0,-0.09276 0.03002,-0.02544 0.378673,0.02522 0.438086,0 0.04616,-0.01974 0.06331,-0.07303 0.10947,-0.09276 0.03329,-0.01316 0.279252,0 0.328575,0 0.25556,0 0.5111,0 0.76666,0 0.474582,0 0.949186,0 1.423789,0 0.03656,0 0.07291,0 0.10947,0 0.03656,0 0.08374,-0.02193 0.10947,0 0.02573,0.02193 -0.02594,0.07084 0,0.09276 0.05474,0.04627 0.273799,-0.04627 0.328554,0 0.02594,0.02193 -0.02573,0.07084 0,0.09276 0.05167,0.04364 0.167474,-0.04364 0.219064,0 0.02573,0.02193 -0.02573,0.07062 0,0.09277 0.02573,0.02193 0.08374,-0.02193 0.10947,0 0.02573,0.02193 -0.02594,0.07083 0,0.09276 0.05147,0.04364 0.15379,-0.02763 0.219043,0 0.04616,0.01974 0.06331,0.07303 0.10947,0.09276 0.03268,0.01316 0.07679,-0.01316 0.109471,0 0.04616,0.01974 0.06331,0.07303 0.10947,0.09276 0.03268,0.01316 0.07679,-0.01316 0.109471,0 0.04616,0.01974 0.06331,0.07303 0.10947,0.09277 0.06536,0.02763 0.167473,-0.04364 0.219043,0 0.02573,0.02193 -0.02573,0.07084 0,0.09276 0.05167,0.04364 0.153789,-0.02763 0.219043,0 0.04616,0.01974 0.06331,0.07303 0.10947,0.09276 0.03268,0.01316 0.08374,-0.02193 0.10947,0 0.02594,0.02193 -0.02594,0.07084 0,0.09276 0.02635,0.02237 0.41174,-0.02237 0.438086,0 0.02573,0.02193 -0.02594,0.07084 0,0.09277 0.02635,0.02237 0.411719,-0.02237 0.438086,0 0.02594,0.02193 -0.02573,0.07084 0,0.09276 0.0339,0.02873 0.513694,-0.02873 0.547617,0 0.02573,0.02193 -0.02573,0.07084 0,0.09276 0.0339,0.02873 0.513694,-0.02873 0.547597,0 0.02594,0.02193 -0.02573,0.07062 0,0.09277 0.02594,0.02193 0.07291,0 0.109471,0 0.292057,0 0.584114,0 0.876171,0 0.03656,0 0.07291,0 0.10947,0 0.03656,0 0.08374,0.02193 0.109471,0 0.02594,-0.02193 -0.02573,-0.07084 0,-0.09277 0.02594,-0.02193 0.08374,0.02193 0.10947,0 0.02573,-0.02193 -0.02573,-0.07083 0,-0.09276 0.02573,-0.02193 0.08374,0.02193 0.109471,0 0.22662,-0.191671 -0.346282,0.0088 0.10947,-0.185311 0.03268,-0.01316 0.08374,0.02193 0.10947,0 0.02573,-0.02193 -0.01634,-0.06513 0,-0.09276 0.02308,-0.03904 0.07291,-0.06184 0.109471,-0.09277 0.03656,-0.03092 0.06331,-0.07303 0.10947,-0.09276 0.03268,-0.01316 0.08353,0.02193 0.10947,0 0.0578,-0.04891 0.06413,-0.127854 0.109471,-0.185311 0.02859,-0.03641 0.08639,-0.05351 0.10947,-0.09276 0.01634,-0.02763 -0.02594,-0.07084 0,-0.09277 0.02573,-0.02193 0.07679,0.01316 0.109471,0 0.242162,-0.102414 0.0339,-0.05768 0.10947,-0.185311 0.227907,-0.385732 -0.0082,0.09913 0.219043,-0.09276 0.03635,-0.03092 -0.03635,-0.154609 0,-0.185311 0.02594,-0.02193 0.08374,0.02193 0.10947,0 0.02594,-0.02193 -0.02573,-0.07084 0,-0.09277 0.02594,-0.02193 0.08374,0.02193 0.109471,0 0.05167,-0.04364 -0.05147,-0.14167 0,-0.185311 0.02594,-0.02193 0.08374,0.02193 0.10947,0 0.02573,-0.02193 -0.02594,-0.07083 0,-0.09276 0.02573,-0.02193 0.08374,0.02193 0.10947,0 0.02594,-0.02193 -0.01634,-0.06513 0,-0.09276 0.02308,-0.03904 0.08639,-0.05351 0.109471,-0.09277 0.01634,-0.02763 -0.02594,-0.07084 0,-0.09276 0.02573,-0.02193 0.08374,0.02193 0.10947,0 0.02594,-0.02193 -0.01634,-0.06513 0,-0.09276 0.04616,-0.07807 0.172784,-0.107239 0.219043,-0.185311 0.01634,-0.02763 -0.02573,-0.07084 0,-0.09277 0.02573,-0.02193 0.08353,0.02193 0.10947,0 0.02573,-0.02193 -0.01634,-0.06513 0,-0.09276 0.04616,-0.07807 0.172784,-0.107239 0.219043,-0.185311 0.01634,-0.02763 -0.01634,-0.06513 0,-0.09276 0.02308,-0.03904 0.08639,-0.05373 0.109471,-0.09277 0.01634,-0.02763 -0.02594,-0.07084 0,-0.09276 0.02573,-0.02193 0.08374,0.02193 0.10947,0 0.02594,-0.02193 -0.01634,-0.06513 0,-0.09276 0.02308,-0.03904 0.08639,-0.05351 0.10947,-0.09276 0.01634,-0.02763 -0.02594,-0.07084 0,-0.09277 0.02594,-0.02193 0.08374,0.02193 0.109471,0 0.03635,-0.03092 -0.03635,-0.154609 0,-0.185311 0.02594,-0.02193 0.08374,0.02193 0.10947,0 0.05167,-0.04364 -0.05147,-0.14167 0,-0.185311 0.02594,-0.02193 0.08374,0.02193 0.10947,0 0.05167,-0.04364 -0.05167,-0.14167 0,-0.185311 0.02594,-0.02193 0.08374,0.02193 0.109471,0 0.05167,-0.04364 -0.05167,-0.14167 0,-0.185312 0.02573,-0.02193 0.08374,0.02193 0.10947,0 0.05167,-0.04364 -0.05167,-0.141669 0,-0.185311 0.02573,-0.02193 0.08374,0.02193 0.109471,0 0.05167,-0.04364 -0.05167,-0.14167 0,-0.185311 0.02573,-0.02193 0.08374,0.02193 0.10947,0 0.02594,-0.02193 -0.01634,-0.06513 0,-0.09276 0.02328,-0.03904 0.08639,-0.05373 0.10947,-0.09277 0.02921,-0.04934 -0.02921,-0.135968 0,-0.185311 0.02308,-0.03904 0.08639,-0.05351 0.109471,-0.09276 0.01634,-0.02763 -0.02573,-0.07083 0,-0.09276 0.02594,-0.02193 0.08374,0.02193 0.10947,0 0.05167,-0.04364 -0.03268,-0.130047 0,-0.185312 0.07291,-0.123687 0.146029,-0.06184 0.219043,-0.185311 0.03268,-0.05526 -0.05167,-0.14167 0,-0.185311 0.02573,-0.02193 0.08353,0.02193 0.10947,0 0.02573,-0.02193 -0.01634,-0.06513 0,-0.09276 0.363234,-0.307376 -0.05167,0.08728 0.109471,-0.185311 0.02308,-0.03904 0.08639,-0.05351 0.10947,-0.09277 0.01634,-0.02763 -0.01634,-0.06513 0,-0.09276 0.363233,-0.307397 -0.05147,0.08728 0.10947,-0.185311 0.02308,-0.03904 0.08639,-0.05351 0.109471,-0.09276 0.01634,-0.02763 -0.01634,-0.06513 0,-0.09277 0.02328,-0.03904 0.08639,-0.05351 0.10947,-0.09276 0.01634,-0.02763 -0.01634,-0.06513 0,-0.09276 0.02328,-0.03904 0.08639,-0.05351 0.109471,-0.09277 0.01634,-0.02763 -0.01634,-0.06513 0,-0.09276 0.02308,-0.03904 0.08639,-0.05351 0.10947,-0.09276 0.01634,-0.02763 -0.01634,-0.06513 0,-0.09276 0.02308,-0.03904 0.07291,-0.06184 0.10947,-0.09277 0.03656,0 0.09313,0.02763 0.109471,0 0.03268,-0.05526 -0.03268,-0.130046 0,-0.185311 0.01634,-0.02763 0.08353,0.02193 0.10947,0 0.05167,-0.04364 -0.05167,-0.14167 0,-0.185311 0.02573,-0.02193 0.07291,0 0.10947,0 0,-0.06184 -0.03268,-0.130047 0,-0.185311 0.01634,-0.02763 0.08374,0.02193 0.109471,0 0.05167,-0.04364 -0.05167,-0.14167 0,-0.185311 0.02594,-0.02193 0.08374,0.02193 0.10947,0 0.02594,-0.02193 -0.02573,-0.07083 0,-0.09277 0.02594,-0.02193 0.08374,0.02193 0.109471,0 0.05167,-0.04364 -0.05167,-0.14167 0,-0.185311 0.02594,-0.02193 0.08374,0.02193 0.10947,0 0.02573,-0.02193 -0.02594,-0.07084 0,-0.09276 0.02573,-0.02193 0.08374,0.02193 0.10947,0 0.05167,-0.04364 -0.05147,-0.14167 0,-0.185311 0.02594,-0.02193 0.08374,0.02193 0.109471,0 0.02573,-0.02193 -0.01634,-0.06513 0,-0.09277 0.02308,-0.03904 0.08639,-0.05351 0.10947,-0.09276 0.01634,-0.02763 -0.02594,-0.07084 0,-0.09276 0.02573,-0.02193 0.08374,0.02193 0.10947,0 0.02573,-0.02193 -0.02594,-0.07084 0,-0.09276 0.02573,-0.02193 0.08374,0.02193 0.109471,0 0.02594,-0.02193 -0.02573,-0.07084 0,-0.09277 0.02594,-0.02193 0.08374,0.02193 0.10947,0 0.02594,-0.02193 -0.02594,-0.07083 0,-0.09276 0.02594,-0.02193 0.08374,0.02193 0.109471,0 0.02594,-0.02193 -0.02573,-0.07083 0,-0.09276 0.02594,-0.02193 0.08374,0.02193 0.10947,0 0.02573,-0.02193 0,-0.06184 0,-0.09276 0.03656,0 0.07679,0.01316 0.10947,0 0.455814,-0.192768 -0.117027,0.0066 0.109471,-0.185312 0.02573,-0.02193 0.07291,0 0.10947,0 0,-0.03092 -0.01634,-0.06513 0,-0.09276 0.227907,-0.385732 -0.0082,0.09913 0.219043,-0.09276 0.02594,-0.02193 -0.02573,-0.07083 0,-0.09276 0.02594,-0.02193 0.08374,0.02193 0.10947,0 0.2266,-0.191671 -0.346281,0.0066 0.109471,-0.185312 0.03268,-0.01316 0.08374,0.02193 0.10947,0 0.02594,-0.02193 -0.01634,-0.06513 0,-0.09276 0.02308,-0.03904 0.08639,-0.05351 0.10947,-0.09276 0.01634,-0.02763 -0.02594,-0.07084 0,-0.09276 0.02573,-0.02193 0.08374,0.02193 0.109471,0 0.02594,-0.02193 -0.02573,-0.07084 0,-0.09277 0.02594,-0.02193 0.08374,0.02193 0.10947,0 0.02573,-0.02193 -0.02573,-0.07083 0,-0.09276 0.2266,-0.191671 -0.0082,0.293033 0.219043,-0.09276 0,-0.247133 -0.03656,0.03092 0.10947,-0.09277 0.02594,-0.02193 -0.02573,-0.07083 0,-0.09276 0.02594,-0.02193 0.08374,0.02193 0.109471,0 0.02594,-0.02193 -0.02573,-0.07083 0,-0.09276 0.05167,-0.04364 0.167473,0.04364 0.219063,0 0.02573,-0.02193 -0.02594,-0.07083 0,-0.09276 0.02573,-0.02193 0.08374,0.02193 0.10947,0 0.02573,-0.02193 -0.02594,-0.07083 0,-0.09277 0.02573,-0.02193 0.08374,0.02193 0.109471,0 0.02594,-0.02193 -0.02573,-0.07084 0,-0.09276 0.05167,-0.04364 0.167473,0.04364 0.219043,0 0.02573,-0.02193 -0.02594,-0.07084 0,-0.09276 0.02573,-0.02193 0.08374,0.02193 0.10947,0 0.02594,-0.02193 -0.02573,-0.07084 0,-0.09276 0.02594,-0.02193 0.07679,0.01316 0.10947,0 0.04616,-0.01974 0.06331,-0.07325 0.109471,-0.09277 0.03268,-0.01316 0.08374,0.02193 0.10947,0 0.02594,-0.02193 -0.02594,-0.07083 0,-0.09276 0.03656,-0.03092 0.182587,0.03092 0.219043,0 0.02594,-0.02193 -0.02573,-0.07083 0,-0.09276 0.05167,-0.04364 0.167473,0.04364 0.219043,0 0.02594,-0.02193 -0.02573,-0.07083 0,-0.09276 0.02594,-0.02193 0.07679,0.01316 0.10947,0 0.04616,-0.01974 0.06331,-0.07325 0.109471,-0.09277 0.06535,-0.02763 0.153789,0.02763 0.219063,0 0.04616,-0.01974 0.06331,-0.07325 0.10947,-0.09276 0.03268,-0.01316 0.08374,0.02193 0.109471,0 0.02594,-0.02193 -0.02594,-0.07083 0,-0.09276 0.05167,-0.04364 0.167473,0.04364 0.219043,0 0.02594,-0.02193 -0.02573,-0.07083 0,-0.09276 0.02594,-0.02193 0.08374,0.02193 0.10947,0 0.146029,-0.123687 -0.182587,-0.09277 0.10947,-0.09277 0.03656,0 0.07291,0 0.109471,0 0.03656,0 0.08374,0.02193 0.10947,0 0.02573,-0.02193 -0.02594,-0.07083 0,-0.09276 0.03635,-0.03092 0.182587,0.03092 0.219043,0 0.02573,-0.02193 -0.02594,-0.07083 0,-0.09276 0.02573,-0.02193 0.07291,0 0.10947,0 0.03656,0 0.08374,-0.02193 0.109471,0 0.02573,0.02193 -0.02573,0.07084 0,0.09276 0.02573,0.02193 0.08374,-0.02193 0.10947,0 0.02594,0.02193 -0.02573,0.07084 0,0.09276 0.02594,0.02193 0.07679,-0.01316 0.10947,0 0.04616,0.01974 0.07291,0.06184 0.109471,0.09277 0.119274,0.100879 0.315626,0.301629 0.438086,0.37071 0.03043,0.01754 0.07495,-0.01096 0.10947,0 0.154811,0.04364 0.27968,0.151977 0.438086,0.185311 0.07087,0.01535 0.146028,0 0.219043,0 0.25556,0 0.5111,0 0.76666,0 0.219043,0 0.438086,0 0.657128,0 0.07291,0 0.149705,0.01974 0.219064,0 0.04902,-0.01316 0.06045,-0.07895 0.10947,-0.09276 0.06924,-0.01974 0.149705,0.01974 0.219043,0 0.04902,-0.01316 0.06045,-0.07895 0.10947,-0.09277 0.06924,-0.01974 0.149705,0.01974 0.219043,0 0.04902,-0.01316 0.06658,-0.06842 0.109471,-0.09276 0.06781,-0.03838 0.141535,-0.07083 0.219042,-0.09276 0.03452,-0.01096 0.07496,0.01096 0.109471,0 0.0774,-0.02193 0.139901,-0.07588 0.219022,-0.09276 0.07087,-0.01535 0.149705,0.01974 0.219064,0 0.04902,-0.01316 0.06331,-0.07325 0.10947,-0.09277 0.03268,-0.01316 0.07496,0.01097 0.10947,0 0.07741,-0.02193 0.141536,-0.07083 0.219043,-0.09276 0.03452,-0.01096 0.07679,0.01316 0.109471,0 0.455813,-0.192987 -0.117028,0.0066 0.10947,-0.185311 0.05167,-0.04364 0.15379,0.02763 0.219043,0 0.04616,-0.01974 0.06331,-0.07325 0.10947,-0.09276 0.03268,-0.01316 0.08374,0.02193 0.109471,0 0.02594,-0.02193 -0.02594,-0.07083 0,-0.09277 0.03656,-0.03092 0.182586,0.03092 0.219042,0 0.02573,-0.02193 -0.02594,-0.07083 0,-0.09276 0.02573,-0.02193 0.08353,0.02193 0.109471,0 0.02573,-0.02193 -0.02594,-0.07083 0,-0.09276 0.05167,-0.04364 0.153789,0.02763 0.219043,0 0.363233,-0.307376 -0.103344,0.04364 0.219022,-0.09276 0.455834,-0.192768 -0.117027,0.0066 0.109471,-0.185312 0.05167,-0.04364 0.153789,0.02763 0.219063,0 0.455793,-0.192767 -0.117027,0.0066 0.10947,-0.185311 0.02573,-0.02193 0.07679,0.01316 0.109471,0 0.04616,-0.01974 0.06331,-0.07325 0.10947,-0.09276 0.03268,-0.01316 0.08353,0.02193 0.10947,0 0.02594,-0.02193 -0.01634,-0.06513 0,-0.09276 0.02328,-0.03904 0.08639,-0.05351 0.109471,-0.09277 0.01634,-0.02763 -0.02594,-0.07083 0,-0.09276 0.02594,-0.02193 0.08374,0.02193 0.10947,0 0,-0.247155 -0.03656,0.03092 0.10947,-0.09276 0.05167,-0.04364 -0.05167,-0.14167 0,-0.185311 0.02594,-0.02193 0.08374,0.02193 0.109471,0 0.02573,-0.02193 -0.01634,-0.06513 0,-0.09277 0.02328,-0.03904 0.08639,-0.05351 0.10947,-0.09276 0.01634,-0.02763 0,-0.06184 0,-0.09276 0.03656,-0.03092 0.08639,-0.05351 0.109471,-0.09276 0.03268,-0.05526 -0.05167,-0.14167 0,-0.185312 0.02594,-0.02193 0.08374,0.02193 0.10947,0 0.02594,-0.02193 -0.01634,-0.06513 0,-0.09276 0.363233,-0.307397 -0.05147,0.08728 0.10947,-0.185311 0.02308,-0.03904 0.09313,-0.05132 0.109471,-0.09276 0.02328,-0.05855 -0.02308,-0.126758 0,-0.185312 0.01634,-0.04145 0.07291,-0.06184 0.10947,-0.09276 0.125401,-0.105923 0.152768,-0.109651 0.219043,-0.278054 0.108653,-0.275906 -0.259339,0.190135 0.10947,-0.278055 0.02859,-0.0364 0.08639,-0.05351 0.109471,-0.09276 0.01634,-0.02763 -0.01225,-0.06338 0,-0.09276 0.02573,-0.06557 0.08374,-0.11974 0.10947,-0.185312 0.01225,-0.02939 -0.01634,-0.06513 0,-0.09276 0.363233,-0.307375 -0.05167,0.08728 0.10947,-0.185311 0.06576,-0.111187 0.262852,-0.16689 0.328575,-0.278055 0.01634,-0.02763 -0.01634,-0.06491 0,-0.09276 0.04616,-0.07807 0.172783,-0.107239 0.219043,-0.185311 0.01634,-0.02763 -0.01634,-0.06513 0,-0.09276 0.06576,-0.111187 0.262831,-0.16689 0.328554,-0.278056 0.01634,-0.02763 -0.01634,-0.06513 0,-0.09276 0.02921,-0.04956 0.270919,-0.22926 0.328574,-0.278055 0.05759,-0.04868 0.270061,-0.253295 0.328555,-0.278054 0.03268,-0.01316 0.07679,0.01316 0.10947,0 0.131324,-0.05548 0.197087,-0.22244 0.328554,-0.278055 0.03268,-0.01316 0.08374,0.02193 0.10947,0 0.02594,-0.02193 -0.02594,-0.07083 0,-0.09276 0.02594,-0.02193 0.08374,0.02193 0.109471,0 0.02573,-0.02193 -0.02594,-0.07083 0,-0.09276 0.05167,-0.04364 0.167473,0.04364 0.219043,0 0.02573,-0.02193 -0.02594,-0.07083 0,-0.09277 0.05167,-0.04364 0.153789,0.02763 0.219042,0 0.09231,-0.03904 0.126627,-0.146275 0.219043,-0.185311 0.06536,-0.02763 0.167474,0.04364 0.219043,0 0.02573,-0.02193 -0.02594,-0.07083 0,-0.09276 0.05167,-0.04364 0.15379,0.02763 0.219043,0 0.04616,-0.01974 0.06331,-0.07325 0.10947,-0.09276 0.06536,-0.02763 0.167474,0.04364 0.219043,0 0.02594,-0.02193 -0.02573,-0.07083 0,-0.09277 0.05167,-0.04364 0.167474,0.04364 0.219064,0 0.02573,-0.02193 -0.02594,-0.07083 0,-0.09276 0.02635,-0.02237 0.411719,0.02237 0.438085,0 0.02573,-0.02193 -0.02594,-0.07083 0,-0.09276 0.05474,-0.04627 0.273799,0.04627 0.328554,0 0.02594,-0.02193 -0.02573,-0.07083 0,-0.09276 0.05474,-0.04627 0.273799,0.04627 0.328575,0 0.02573,-0.02193 -0.02573,-0.07083 0,-0.09277 0.05473,-0.04627 0.273819,0.04627 0.328554,0 0.02594,-0.02193 -0.02573,-0.07084 0,-0.09276 0.05167,-0.04364 0.167473,0.04364 0.219063,0 0.02573,-0.02193 -0.02594,-0.07084 0,-0.09276 0.05474,-0.04627 0.273799,0.04627 0.328554,0 0.02594,-0.02193 -0.02594,-0.07084 0,-0.09276 0.02594,-0.02193 0.07679,0.01316 0.109471,0 0.04616,-0.01974 0.06331,-0.07325 0.10947,-0.09277 0.06536,-0.02763 0.167474,0.04364 0.219043,0 0.02594,-0.02193 -0.02573,-0.07084 0,-0.09276 0.03635,-0.03092 0.182587,0.03092 0.219063,0 0.02573,-0.02193 -0.02594,-0.07084 0,-0.09276 0.02573,-0.02193 0.08374,0.02193 0.109471,0 0.02594,-0.02193 -0.02594,-0.07084 0,-0.09276 0.05167,-0.04364 0.167473,0.04364 0.219043,0 0.02573,-0.02193 -0.02594,-0.07084 0,-0.09277 0.02573,-0.02193 0.07312,0 0.10947,0 0,-0.03092 -0.02594,-0.07083 0,-0.09276 0.02573,-0.02193 0.08353,0.02193 0.10947,0 0.02594,-0.02193 -0.02573,-0.07083 0,-0.09276 0.02594,-0.02193 0.08374,0.02193 0.109471,0 0.02594,-0.02193 -0.02594,-0.07083 0,-0.09277 0.02594,-0.02193 0.08374,0.02193 0.10947,0 0.02594,-0.02193 -0.02573,-0.07083 0,-0.09276 0.02594,-0.02193 0.08374,0.02193 0.10947,0 0.02594,-0.02193 -0.02573,-0.07084 0,-0.09276 0.05167,-0.04364 0.167474,0.04364 0.219064,0 0.02573,-0.02193 -0.02573,-0.07084 0,-0.09276 0.02573,-0.02193 0.08374,0.02193 0.10947,0 0.02594,-0.02193 -0.02573,-0.07084 0,-0.09277 0.02594,-0.02193 0.07291,0 0.109471,0 0,-0.03092 -0.02594,-0.07083 0,-0.09276 0.02573,-0.02193 0.08374,0.02193 0.10947,0 0.02594,-0.02193 -0.02573,-0.07083 0,-0.09276 0.02594,-0.02193 0.08353,0.02193 0.10947,0 0.02594,-0.02193 -0.02594,-0.07083 0,-0.09276 0.02594,-0.02193 0.08374,0.02193 0.109471,0 0.02594,-0.02193 -0.02573,-0.07083 0,-0.09277 0.02594,-0.02193 0.07291,0 0.10947,0 0,-0.03092 -0.02594,-0.07084 0,-0.09276 0.02594,-0.02193 0.08374,0.02193 0.10947,0 0.02573,-0.02193 -0.02594,-0.07084 0,-0.09276 0.02573,-0.02193 0.08374,0.02193 0.109471,0 0.02573,-0.02193 -0.02594,-0.07084 0,-0.09276 0.02573,-0.02193 0.08374,0.02193 0.10947,0 0.02573,-0.02193 -0.02594,-0.07084 0,-0.09277 0.05167,-0.04364 0.167473,0.04364 0.219043,0 0.02573,-0.02193 -0.02594,-0.07083 0,-0.09276 0.02573,-0.02193 0.08353,0.02193 0.10947,0 0.02594,-0.02193 -0.02573,-0.07083 0,-0.09276 0.02594,-0.02193 0.08374,0.02193 0.109471,0 0.02594,-0.02193 -0.02573,-0.07083 0,-0.09276 0.02594,-0.02193 0.08374,0.02193 0.10947,0 0.02594,-0.02193 -0.02573,-0.07083 0,-0.09277 0.02594,-0.02193 0.08374,0.02193 0.109471,0 0.02573,-0.02193 -0.02594,-0.07084 0,-0.09276 0.02573,-0.02193 0.08374,0.02193 0.10947,0 0.02573,-0.02193 -0.02594,-0.07084 0,-0.09276 0.02573,-0.02193 0.08374,0.02193 0.10947,0 0.02573,-0.02193 -0.02573,-0.07084 0,-0.09276 0.02573,-0.02193 0.08374,0.02193 0.109471,0 0.02594,-0.02193 -0.02573,-0.07084 0,-0.09277 0.03635,-0.03092 0.182586,0.03092 0.219043,0 0.03635,-0.03092 -0.03635,-0.154609 0,-0.185311 0.02573,-0.02193 0.07291,0 0.10947,0 0,-0.03092 -0.02594,-0.07084 0,-0.09276 0.02573,-0.02193 0.08353,0.02193 0.10947,0 0.02573,-0.02193 -0.02594,-0.07084 0,-0.09276 0.02573,-0.02193 0.07679,0.01316 0.109471,0 0.04616,-0.01974 0.06331,-0.07325 0.10947,-0.09277 0.03268,-0.01316 0.08374,0.02193 0.10947,0 0.02594,-0.02193 -0.02573,-0.07083 0,-0.09276 0.02594,-0.02193 0.08374,0.02193 0.109471,0 0.02573,-0.02193 -0.02594,-0.07083 0,-0.09276 0.02573,-0.02193 0.08374,0.02193 0.10947,0 0.02594,-0.02193 -0.02573,-0.07083 0,-0.09277 0.02594,-0.02193 0.08374,0.02193 0.109471,0 0.02594,-0.02193 -0.02573,-0.07083 0,-0.09276 0.05167,-0.04364 0.167473,0.04364 0.219063,0 0.02573,-0.02193 -0.02594,-0.07084 0,-0.09276 0.02573,-0.02193 0.07291,0 0.10947,0 0,-0.03092 -0.02594,-0.07062 0,-0.09276 0.02573,-0.02193 0.08374,0.02193 0.109471,0 0.02573,-0.02193 -0.02594,-0.07084 0,-0.09277 0.0041,-0.0044 0.397871,0 0.438085,0 0.255561,0 0.5111,0 0.766661,0 0.03656,0 0.07291,0 0.10947,0 0.03656,0 0.10947,-0.03092 0.10947,0 0,0.03092 -0.146028,0 -0.10947,0 0.07291,0 0.153789,-0.02763 0.219063,0 0.292057,0.123687 -0.328574,0.09277 0.109471,0.09277"
     id="path3811" />
  <path
     style="fill:none;stroke:#000000;stroke-width:1.49892831;stroke-linecap:butt;stroke-linejoin:miter;stroke-miterlimit:4;stroke-opacity:1;stroke-dasharray:none"
     d="m 16.663942,3.7078933 c 0,46.3678727 0,46.3678727 0,46.3678727"
     id="path3769" />
</svg>
