<?xml version="1.0" encoding="UTF-8" standalone="no"?>
<!-- Created with Inkscape (http://www.inkscape.org/) -->

<svg
   xmlns:dc="http://purl.org/dc/elements/1.1/"
   xmlns:cc="http://creativecommons.org/ns#"
   xmlns:rdf="http://www.w3.org/1999/02/22-rdf-syntax-ns#"
   xmlns:svg="http://www.w3.org/2000/svg"
   xmlns="http://www.w3.org/2000/svg"
   xmlns:sodipodi="http://sodipodi.sourceforge.net/DTD/sodipodi-0.dtd"
   xmlns:inkscape="http://www.inkscape.org/namespaces/inkscape"
   width="114"
   height="63.091705"
   id="svg2924"
   version="1.1"
   inkscape:version="0.47 r22583"
   sodipodi:docname="SpatialEnv.svg">
  <defs
     id="defs2926">
    <inkscape:perspective
       sodipodi:type="inkscape:persp3d"
       inkscape:vp_x="0 : 526.18109 : 1"
       inkscape:vp_y="0 : 1000 : 0"
       inkscape:vp_z="744.09448 : 526.18109 : 1"
       inkscape:persp3d-origin="372.04724 : 350.78739 : 1"
       id="perspective2932" />
    <inkscape:perspective
       id="perspective2911"
       inkscape:persp3d-origin="0.5 : 0.33333333 : 1"
       inkscape:vp_z="1 : 0.5 : 1"
       inkscape:vp_y="0 : 1000 : 0"
       inkscape:vp_x="0 : 0.5 : 1"
       sodipodi:type="inkscape:persp3d" />
    <inkscape:perspective
       id="perspective2967"
       inkscape:persp3d-origin="0.5 : 0.33333333 : 1"
       inkscape:vp_z="1 : 0.5 : 1"
       inkscape:vp_y="0 : 1000 : 0"
       inkscape:vp_x="0 : 0.5 : 1"
       sodipodi:type="inkscape:persp3d" />
    <inkscape:perspective
       id="perspective2995"
       inkscape:persp3d-origin="0.5 : 0.33333333 : 1"
       inkscape:vp_z="1 : 0.5 : 1"
       inkscape:vp_y="0 : 1000 : 0"
       inkscape:vp_x="0 : 0.5 : 1"
       sodipodi:type="inkscape:persp3d" />
  </defs>
  <sodipodi:namedview
     id="base"
     pagecolor="#ffffff"
     bordercolor="#666666"
     borderopacity="1.0"
     inkscape:pageopacity="0.0"
     inkscape:pageshadow="2"
     inkscape:zoom="5.6"
     inkscape:cx="36.947923"
     inkscape:cy="21.221478"
     inkscape:document-units="px"
     inkscape:current-layer="layer1"
     showgrid="false"
     inkscape:window-width="1337"
     inkscape:window-height="971"
     inkscape:window-x="1"
     inkscape:window-y="52"
     inkscape:window-maximized="0" />
  <metadata
     id="metadata2929">
    <rdf:RDF>
      <cc:Work
         rdf:about="">
        <dc:format>image/svg+xml</dc:format>
        <dc:type
           rdf:resource="http://purl.org/dc/dcmitype/StillImage" />
        <dc:title></dc:title>
      </cc:Work>
    </rdf:RDF>
  </metadata>
  <g
     inkscape:label="Layer 1"
     inkscape:groupmode="layer"
     id="layer1"
     transform="translate(-343.65356,-500.79483)">
    <rect
       style="fill:#ffffff;fill-opacity:1;stroke:#f2f2f2;stroke-width:1;stroke-linecap:square;stroke-linejoin:miter;stroke-miterlimit:4;stroke-dasharray:none"
       id="rect3015"
       width="113.21429"
       height="62.32143"
       x="0.53571427"
       y="0.41313377"
       transform="translate(343.65356,500.79483)" />
    <rect
       style="fill:#ffffff;stroke:#000000;stroke-width:3;stroke-miterlimit:4;stroke-dasharray:none"
       id="rect3680"
       width="20"
       height="20"
       x="350.94962"
       y="502.35184" />
    <rect
       style="fill:#ffffff;stroke:#000000;stroke-width:3;stroke-miterlimit:4;stroke-dasharray:none"
       id="rect3680-3"
       width="20"
       height="20"
       x="370.53448"
       y="502.3378" />
    <rect
       style="fill:#ffffff;stroke:#000000;stroke-width:3;stroke-miterlimit:4;stroke-dasharray:none"
       id="rect3680-0"
       width="20"
       height="20"
       x="390.56073"
       y="502.34952" />
    <rect
       style="fill:#ffffff;stroke:#000000;stroke-width:3;stroke-miterlimit:4;stroke-dasharray:none"
       id="rect3680-4"
       width="20"
       height="20"
       x="350.89404"
       y="522.35883" />
    <rect
       style="fill:#ffffff;stroke:#000000;stroke-width:3;stroke-miterlimit:4;stroke-dasharray:none"
       id="rect3680-3-6"
       width="20"
       height="20"
       x="370.47894"
       y="522.34485" />
    <rect
       style="fill:#ffffff;stroke:#000000;stroke-width:3;stroke-miterlimit:4;stroke-dasharray:none"
       id="rect3680-0-4"
       width="20"
       height="20"
       x="390.50519"
       y="522.35651" />
    <rect
       style="fill:#ffffff;stroke:#000000;stroke-width:3;stroke-miterlimit:4;stroke-dasharray:none"
       id="rect3680-38"
       width="20"
       height="20"
       x="350.86786"
       y="542.38654" />
    <rect
       style="fill:#ffffff;stroke:#000000;stroke-width:3;stroke-miterlimit:4;stroke-dasharray:none"
       id="rect3680-3-9"
       width="20"
       height="20"
       x="370.45273"
       y="542.3725" />
    <rect
       style="fill:#ffffff;stroke:#000000;stroke-width:3;stroke-miterlimit:4;stroke-dasharray:none"
       id="rect3680-0-2"
       width="20"
       height="20"
       x="390.47897"
       y="542.38422" />
    <rect
       style="fill:#ffffff;stroke:#000000;stroke-width:3;stroke-miterlimit:4;stroke-dasharray:none"
       id="rect3680-0-0"
       width="20"
       height="20"
       x="410.49677"
       y="502.29483" />
    <rect
       style="fill:#ffffff;stroke:#000000;stroke-width:3;stroke-miterlimit:4;stroke-dasharray:none"
       id="rect3680-0-4-5"
       width="20"
       height="20"
       x="410.44122"
       y="522.30182" />
    <rect
       style="fill:#ffffff;stroke:#000000;stroke-width:3;stroke-miterlimit:4;stroke-dasharray:none"
       id="rect3680-0-2-9"
       width="20"
       height="20"
       x="410.41501"
       y="542.32953" />
    <rect
       style="fill:#ffffff;stroke:#000000;stroke-width:3;stroke-miterlimit:4;stroke-dasharray:none"
       id="rect3680-0-0-9"
       width="20"
       height="20"
       x="430.48016"
       y="502.26205" />
    <rect
       style="fill:#ffffff;stroke:#000000;stroke-width:3;stroke-miterlimit:4;stroke-dasharray:none"
       id="rect3680-0-4-5-7"
       width="20"
       height="20"
       x="430.42462"
       y="522.26904" />
    <rect
       style="fill:#ffffff;stroke:#000000;stroke-width:3;stroke-miterlimit:4;stroke-dasharray:none"
       id="rect3680-0-2-9-8"
       width="20"
       height="20"
       x="430.39841"
       y="542.29675" />
    <path
       style="fill:#333333;fill-opacity:1;stroke:#f2f2f2;stroke-width:0;stroke-linecap:square;stroke-linejoin:miter;stroke-miterlimit:4;stroke-dasharray:none"
       d="m 8.8407805,51.548799 0,-8.392858 8.2142855,0 8.214286,0 0,8.392858 0,8.392857 -8.214286,0 -8.2142855,0 0,-8.392857 z"
       id="path3828"
       transform="translate(343.65356,500.79483)" />
    <path
       style="fill:#333333;fill-opacity:1;stroke:#f2f2f2;stroke-width:0;stroke-linecap:square;stroke-linejoin:miter;stroke-miterlimit:4;stroke-dasharray:none"
       d="m 88.305066,31.459513 0,-8.482143 8.482143,0 8.482141,0 0,8.482143 0,8.482143 -8.482141,0 -8.482143,0 0,-8.482143 z"
       id="path3830"
       transform="translate(343.65356,500.79483)" />
    <path
       style="fill:#4d4d4d;fill-opacity:1;stroke:#f2f2f2;stroke-width:0;stroke-linecap:square;stroke-linejoin:miter;stroke-miterlimit:4;stroke-dasharray:none"
       d="m 48.483638,31.548798 0,-8.392857 8.392857,0 8.392857,0 0,8.392857 0,8.392858 -8.392857,0 -8.392857,0 0,-8.392858 z"
       id="path3832"
       transform="translate(343.65356,500.79483)" />
    <path
       style="fill:#4d4d4d;fill-opacity:1;stroke:#f2f2f2;stroke-width:0;stroke-linecap:square;stroke-linejoin:miter;stroke-miterlimit:4;stroke-dasharray:none"
       d="m 8.8407805,11.548798 0,-8.3928567 8.2142855,0 8.214286,0 0,8.3928567 0,8.392858 -8.214286,0 -8.2142855,0 0,-8.392858 z"
       id="path3834"
       transform="translate(343.65356,500.79483)" />
    <path
       style="fill:#666666;fill-opacity:1;stroke:#f2f2f2;stroke-width:0;stroke-linecap:square;stroke-linejoin:miter;stroke-miterlimit:4;stroke-dasharray:none"
       d="m 68.305066,51.548799 0,-8.392858 8.392858,0 8.392857,0 0,8.392858 0,8.392857 -8.392857,0 -8.392858,0 0,-8.392857 z"
       id="path3836"
       transform="translate(343.65356,500.79483)" />
    <path
       style="fill:#666666;fill-opacity:1;stroke:#f2f2f2;stroke-width:0;stroke-linecap:square;stroke-linejoin:miter;stroke-miterlimit:4;stroke-dasharray:none"
       d="m 48.483638,11.548798 0,-8.3928567 8.392857,0 8.392857,0 0,8.3928567 0,8.392858 -8.392857,0 -8.392857,0 0,-8.392858 z"
       id="path3838"
       transform="translate(343.65356,500.79483)" />
    <path
       style="fill:#808080;fill-opacity:1;stroke:#f2f2f2;stroke-width:0;stroke-linecap:square;stroke-linejoin:miter;stroke-miterlimit:4;stroke-dasharray:none"
       d="m 88.483638,11.459513 0,-8.4821431 8.392857,0 8.392855,0 0,8.4821431 0,8.482143 -8.392855,0 -8.392857,0 0,-8.482143 z"
       id="path3840"
       transform="translate(343.65356,500.79483)" />
    <path
       style="fill:#808080;fill-opacity:1;stroke:#f2f2f2;stroke-width:0;stroke-linecap:square;stroke-linejoin:miter;stroke-miterlimit:4;stroke-dasharray:none"
       d="m 28.483638,31.548798 0,-8.392857 8.392857,0 8.392857,0 0,8.392857 0,8.392858 -8.392857,0 -8.392857,0 0,-8.392858 z"
       id="path3842"
       transform="translate(343.65356,500.79483)" />
    <path
       style="fill:#999999;fill-opacity:1;stroke:#f2f2f2;stroke-width:0;stroke-linecap:square;stroke-linejoin:miter;stroke-miterlimit:4;stroke-dasharray:none"
       d="m 8.8407805,31.548798 0,-8.392857 8.2142855,0 8.214286,0 0,8.392857 0,8.392858 -8.214286,0 -8.2142855,0 0,-8.392858 z"
       id="path3844"
       transform="translate(343.65356,500.79483)" />
    <path
       style="fill:#999999;fill-opacity:1;stroke:#f2f2f2;stroke-width:0;stroke-linecap:square;stroke-linejoin:miter;stroke-miterlimit:4;stroke-dasharray:none"
       d="m 68.483638,11.548798 0,-8.3928567 8.392857,0 8.392857,0 0,8.3928567 0,8.392858 -8.392857,0 -8.392857,0 0,-8.392858 z"
       id="path3846"
       transform="translate(343.65356,500.79483)" />
    <path
       style="fill:#b3b3b3;fill-opacity:1;stroke:#f2f2f2;stroke-width:0;stroke-linecap:square;stroke-linejoin:miter;stroke-miterlimit:4;stroke-dasharray:none"
       d="m 88.305066,51.548799 0,-8.392858 8.392858,0 8.392856,0 0,8.392858 0,8.392857 -8.392856,0 -8.392858,0 0,-8.392857 z"
       id="path3848"
       transform="translate(343.65356,500.79483)" />
    <path
       style="fill:#b3b3b3;fill-opacity:1;stroke:#f2f2f2;stroke-width:0;stroke-linecap:square;stroke-linejoin:miter;stroke-miterlimit:4;stroke-dasharray:none"
       d="m 28.305066,51.548799 0,-8.392858 8.482143,0 8.482143,0 0,8.392858 0,8.392857 -8.482143,0 -8.482143,0 0,-8.392857 z"
       id="path3850"
       transform="translate(343.65356,500.79483)" />
    <path
       style="fill:#e6e6e6;fill-opacity:1;stroke:#f2f2f2;stroke-width:0;stroke-linecap:square;stroke-linejoin:miter;stroke-miterlimit:4;stroke-dasharray:none"
       d="m 48.483638,51.548799 0,-8.392858 8.303571,0 8.303572,0 0,8.392858 0,8.392857 -8.303572,0 -8.303571,0 0,-8.392857 z"
       id="path3852"
       transform="translate(343.65356,500.79483)" />
    <path
       style="fill:#e6e6e6;fill-opacity:1;stroke:#f2f2f2;stroke-width:0;stroke-linecap:square;stroke-linejoin:miter;stroke-miterlimit:4;stroke-dasharray:none"
       d="m 28.483638,11.548798 0,-8.3928567 8.392857,0 8.392857,0 0,8.3928567 0,8.392858 -8.392857,0 -8.392857,0 0,-8.392858 z"
       id="path3854"
       transform="translate(343.65356,500.79483)" />
  </g>
</svg>
